<?xml version="1.0" encoding="UTF-8" standalone="no"?>
<svg
   xmlns:dc="http://purl.org/dc/elements/1.1/"
   xmlns:cc="http://creativecommons.org/ns#"
   xmlns:rdf="http://www.w3.org/1999/02/22-rdf-syntax-ns#"
   xmlns:svg="http://www.w3.org/2000/svg"
   xmlns="http://www.w3.org/2000/svg"
   viewBox="0 0 299.79999 91.306664"
   height="91.306664"
   width="299.79999"
   xml:space="preserve"
   id="svg2"
   version="1.1"><metadata
     id="metadata8"><rdf:RDF><cc:Work
         rdf:about=""><dc:format>image/svg+xml</dc:format><dc:type
           rdf:resource="http://purl.org/dc/dcmitype/StillImage" /></cc:Work></rdf:RDF></metadata><defs
     id="defs6" /><g
     transform="matrix(1.3333333,0,0,-1.3333333,0,91.306667)"
     id="g10"><g
       transform="scale(0.1)"
       id="g12"><path
         id="path14"
         style="fill:#a20641;fill-opacity:1;fill-rule:nonzero;stroke:none"
         d="m 31.2383,662.797 v -12.891 l 17.8359,6.328 v 0.243 z M 62.543,651.934 47.4531,646.336 c -9.8945,-3.648 -19.957,-7.215 -28.0664,-10.297 -7.2148,-2.758 -7.789,-3.891 -8.2656,-8.594 H 8.84766 v 21.328 h 2.27344 l 0.3242,-2.273 c 0.4883,-3.086 1.2969,-3.246 4.3828,-2.27 2.4141,0.809 7.4532,2.758 11.668,4.461 v 15.004 c -2.4414,1.059 -6.9648,2.512 -10.3711,3.645 -4.3125,1.465 -5.3711,0.812 -5.7773,-2.758 l -0.2266,-2.269 H 8.84766 v 18.003 h 2.27344 c 0.6328,-5.023 0.9648,-5.921 8.2656,-8.757 l 42.168,-16.387 0.9883,-3.238" /><path
         id="path16"
         style="fill:#a20641;fill-opacity:1;fill-rule:nonzero;stroke:none"
         d="m 21.1758,608.016 c -7.4688,0 -9.0039,-0.817 -9.0039,-7.063 0,-13.453 9.4765,-20.433 22.957,-20.433 17.3633,0 23.3438,8.757 23.3438,21.734 0,2.68 -0.3125,4.785 -0.7149,5.269 -0.418,0.493 -1.8711,0.493 -3.9922,0.493 z m 40.3789,-8.352 c 0,-9.086 -1.9297,-17.359 -7.1211,-22.711 -3.7383,-3.734 -9.7422,-6.816 -16.875,-6.816 -19.9453,0 -28.71094,15.41 -28.71094,34.39 v 19.871 h 2.27344 c 0.4766,-6.66 1.1328,-7.3 9.8867,-7.3 h 28.375 c 8.7774,0 9.4336,0.64 9.9102,6.656 h 2.2617 v -24.09" /><path
         id="path18"
         style="fill:#a20641;fill-opacity:1;fill-rule:nonzero;stroke:none"
         d="m 35.7617,528.082 c -5.0156,0 -9.0742,3.973 -9.0742,8.84 0,4.867 4.0586,8.922 9.0742,8.922 4.9531,0 9.0977,-4.055 9.0977,-8.922 0,-4.867 -4.1446,-8.84 -9.0977,-8.84" /><path
         id="path20"
         style="fill:#a20641;fill-opacity:1;fill-rule:nonzero;stroke:none"
         d="M 61.5547,492.965 22.875,475.043 61.5547,458.098 V 442.77 H 59.293 c -0.6563,6.562 -0.9649,6.89 -9.9102,6.73 l -28.375,-0.812 c -9.0742,-0.243 -9.2539,-0.489 -9.8867,-7.059 H 8.84766 v 22.633 h 2.27344 c 0.6328,-6.332 0.8125,-6.574 9.8867,-6.489 l 31.1406,0.325 v 0.32 L 9.82422,476.836 v 2.422 l 40.70308,17.765 v 0.325 l -20.996,0.57 c -7.3086,0.156 -11.7618,0.078 -14.1954,-0.25 -3.082,-0.32 -3.7382,-2.02 -4.2148,-7.379 H 8.84766 v 19.223 h 2.27344 c 0.3242,-4.055 1.1328,-5.676 4.2148,-6.242 2.4336,-0.411 7.2071,-1.059 15.0079,-1.461 l 16.6953,-0.891 c 10.8007,-0.57 11.5976,0 12.2539,6.969 h 2.2617 v -14.922" /><path
         id="path22"
         style="fill:#a20641;fill-opacity:1;fill-rule:nonzero;stroke:none"
         d="m 31.2109,419.941 0.168,-12.89 17.7539,6.558 v 0.243 z m 31.4649,-10.449 -15.043,-5.797 C 37.8086,399.91 27.793,396.203 19.7344,393.02 c -7.1836,-2.848 -7.7305,-3.997 -8.1602,-8.707 l -2.27342,-0.032 -0.28515,21.324 2.27347,0.04 0.3593,-2.274 c 0.5235,-3.07 1.3321,-3.223 4.4024,-2.207 2.418,0.84 7.4219,2.856 11.625,4.621 l -0.2031,15 c -2.4532,1.016 -7.0118,2.422 -10.4297,3.516 -4.3242,1.394 -5.3711,0.726 -5.7305,-2.84 l -0.2148,-2.27 -2.26176,-0.039 -0.25,18.008 2.28516,0.028 c 0.7148,-5.016 1.0391,-5.911 8.3828,-8.653 l 42.3945,-15.808 1.0274,-3.235" /><path
         id="path24"
         style="fill:#a20641;fill-opacity:1;fill-rule:nonzero;stroke:none"
         d="m 52.1953,384.414 c 8.3594,2.609 8.7774,3.426 7.2383,9.992 l 2.168,0.676 6.8125,-21.844 -2.168,-0.679 c -2.168,5.367 -2.9766,5.789 -11.3477,3.171 L 29.8906,367.934 C 21.4258,365.301 14.4805,363.891 7.3125,369.137 4.69141,371.035 2.09766,373.625 0,377.055 l 1.875,1.597 c 4.01953,-4.433 8.1406,-5.367 12.5352,-5.011 3.9648,0.39 8.5117,1.64 13.7656,3.277 l 24.0195,7.496" /><path
         id="path26"
         style="fill:#a20641;fill-opacity:1;fill-rule:nonzero;stroke:none"
         d="m 46.2188,351.793 c -12.3282,-7.977 -18.3399,-19.578 -12.1016,-29.254 4.5859,-7.082 14.0156,-8.715 26.832,-0.434 14.1797,9.149 18.4922,19.958 12.5977,29.083 -4.668,7.222 -15.2539,8.378 -27.3281,0.605 z m 22.9687,-36.91 c -14.5039,-9.379 -30.5312,-5.344 -38.8906,7.601 -8.6719,13.414 -4.3594,28.743 8.0234,36.75 11.1836,7.215 28.9727,7.614 39.3242,-8.402 7.5977,-11.781 4.8321,-27.379 -8.457,-35.949" /><path
         id="path28"
         style="fill:#a20641;fill-opacity:1;fill-rule:nonzero;stroke:none"
         d="m 85.3477,302.691 2.3437,-1.968 c 2.4922,-2.086 4.5391,-3.157 7.207,-3.27 4.1446,-0.086 7.4996,2.18 10.0036,5.156 5.383,6.485 2.786,12.45 -1.191,15.774 -2.988,2.496 -3.313,2.344 -4.9766,0.363 z m 21.8983,16.762 c 4.527,-3.785 7.336,-6.988 8.481,-10.687 1.082,-3.645 0.582,-7.657 -2.489,-11.321 -4.347,-5.226 -10.648,-6.195 -17.2458,-3.863 -0.4766,-2.57 -1.6641,-8.949 -2.0117,-13.406 -0.5,-5.395 -0.75,-8.981 -0.5938,-11.215 0.25,-2.738 0.4492,-4.5 1.8906,-6.449 l -1.5937,-1.41 -2.5,2.316 c -6.3711,6.156 -7.0391,9.656 -6.5625,15.168 0.4062,4.523 1.6797,10.215 2.5703,14.961 0.4531,2.558 0.2422,3.816 -1.6406,5.371 l -1.9883,1.656 -6.957,-8.336 C 71.0117,285.52 71.0938,284.609 75.5,280.289 l -1.4531,-1.738 -17.5547,14.64 1.4648,1.75 c 5.3008,-3.793 6.2071,-3.703 11.8125,3.012 l 18.1758,21.774 c 5.5938,6.711 5.5117,7.621 1.1055,11.937 l 1.4414,1.746 16.7538,-13.957" /><path
         id="path30"
         style="fill:#a20641;fill-opacity:1;fill-rule:nonzero;stroke:none"
         d="m 157.82,284.766 c -0.511,-1.215 -3.191,-6.586 -5.25,-11.2 l -2.191,1.067 c 1.215,3.773 1.488,6.23 1.035,7.894 -0.512,1.875 -2.535,3.582 -6.906,6.071 l -3.535,2.004 c -2.668,1.515 -2.813,1.597 -4.262,-0.938 l -8.481,-14.949 6.051,-3.453 c 6.071,-3.438 6.442,-3.098 10.239,1.926 l 2.261,-1.278 -8.5,-14.957 -2.265,1.289 c 2.468,5.977 2.492,6.344 -3.582,9.785 l -6.063,3.45 -6.586,-11.571 c -2.308,-4.086 -3.152,-6.222 -2.402,-7.859 0.785,-1.567 3.285,-3.078 6.238,-4.766 3.535,-2.004 6.942,-3.566 9.434,-2.64 1.937,0.652 4.5,2.371 7.64,5.07 l 1.871,-1.617 c -1.64,-2.246 -7.289,-8.547 -8.964,-10.207 l -34.4184,19.554 1.1214,1.981 c 6.285,-3.016 7.191,-2.785 11.515,4.836 l 14.028,24.68 c 4.336,7.613 4.086,8.496 -1.035,11.968 l 1.117,1.977 31.89,-18.117" /><path
         id="path32"
         style="fill:#a20641;fill-opacity:1;fill-rule:nonzero;stroke:none"
         d="m 176.996,275.973 2.25,-42.571 30.113,29.618 14.235,-5.711 -0.848,-2.102 c -6.336,1.852 -6.762,1.656 -9.918,-6.68 l -9.812,-26.652 c -3.145,-8.512 -2.993,-8.75 2.867,-11.789 l -0.832,-2.125 -20.996,8.414 0.847,2.113 c 6.094,-1.746 6.395,-1.691 9.68,6.77 l 11.289,29.019 -0.32,0.125 -32.797,-32.441 -2.262,0.898 -1.347,44.387 -0.309,0.129 -8.348,-19.281 c -2.855,-6.723 -4.441,-10.887 -5.047,-13.266 -0.836,-2.984 0.5,-4.223 5.286,-6.664 l -0.844,-2.113 -17.84,7.148 0.848,2.11 c 3.89,-1.207 5.691,-1.051 7.355,1.597 1.289,2.106 3.668,6.297 6.934,13.379 l 7.047,15.168 c 4.539,9.805 4.324,10.77 -1.926,13.957 l 0.844,2.121 13.851,-5.558" /><path
         id="path34"
         style="fill:#a20641;fill-opacity:1;fill-rule:nonzero;stroke:none"
         d="m 261.531,218.934 c -1.57,-4.786 -6.621,-7.407 -11.242,-5.875 -4.605,1.511 -7.203,6.636 -5.633,11.414 1.539,4.703 6.684,7.367 11.305,5.84 4.629,-1.524 7.117,-6.684 5.57,-11.379" /><path
         id="path36"
         style="fill:#a20641;fill-opacity:1;fill-rule:nonzero;stroke:none"
         d="m 307.438,220.301 c 2.917,-6.867 4.253,-7.977 10.015,-5.539 12.395,5.269 15.113,16.718 9.86,29.117 -6.786,15.973 -17.196,18.082 -29.153,13.008 -2.453,-1.039 -4.273,-2.16 -4.558,-2.735 -0.289,-0.558 0.285,-1.898 1.105,-3.843 z m -7.215,40.539 c 8.465,3.312 16.871,4.519 23.746,1.633 4.832,-2.121 9.894,-6.59 12.488,-13.231 7.266,-18.59 -3.891,-32.355 -21.562,-39.273 l -18.508,-7.223 -0.832,2.102 c 6.023,2.882 6.383,3.722 3.203,11.879 l -10.348,26.437 c -3.18,8.156 -4.027,8.524 -9.789,6.793 l -0.836,2.113 22.438,8.77" /><path
         id="path38"
         style="fill:#a20641;fill-opacity:1;fill-rule:nonzero;stroke:none"
         d="m 359.32,287.836 c 0.743,-1.078 3.766,-6.262 6.493,-10.516 l -2.083,-1.25 c -2.515,3.086 -4.41,4.668 -6.039,5.2 -1.855,0.597 -4.394,-0.157 -8.859,-2.45 l -3.609,-1.843 c -2.75,-1.407 -2.907,-1.485 -1.559,-4.079 l 7.824,-15.3 6.215,3.179 c 6.203,3.172 6.133,3.684 4,9.614 l 2.324,1.172 7.825,-15.293 -2.301,-1.18 c -3.668,5.336 -3.953,5.539 -10.145,2.355 l -6.203,-3.172 6.051,-11.832 c 2.141,-4.195 3.473,-6.058 5.25,-6.339 1.75,-0.211 4.383,1.066 7.406,2.621 3.61,1.836 6.789,3.84 7.383,6.41 0.523,2 0.5,5.086 -0.059,9.183 l 2.383,0.676 c 0.973,-2.605 3.164,-10.781 3.606,-13.094 l -35.211,-18.046 -1.035,2.015 c 5.976,3.617 6.273,4.488 2.261,12.289 l -12.922,25.262 c -4,7.789 -4.871,8.074 -10.586,5.699 l -1.011,2.02 32.601,16.699" /><path
         id="path40"
         style="fill:#a20641;fill-opacity:1;fill-rule:nonzero;stroke:none"
         d="m 384.797,303.309 1.187,-1.93 c -4.988,-3.66 -5.203,-4.559 -0.582,-12.012 l 14.946,-24.137 c 4.621,-7.449 5.511,-7.671 11.015,-4.835 l 1.192,-1.93 -19.461,-12.039 -1.176,1.918 c 5.105,3.75 5.32,4.636 0.699,12.094 l -14.941,24.148 c -4.61,7.449 -5.504,7.668 -11.137,4.738 l -1.203,1.938 19.461,12.047" /><path
         id="path42"
         style="fill:#a20641;fill-opacity:1;fill-rule:nonzero;stroke:none"
         d="m 427.629,304.629 c 3.133,-3.938 2.551,-9.582 -1.262,-12.613 -3.797,-3.024 -9.504,-2.379 -12.637,1.562 -3.082,3.867 -2.476,9.625 1.325,12.645 3.808,3.039 9.5,2.273 12.574,-1.594" /><path
         id="path44"
         style="fill:#a20641;fill-opacity:1;fill-rule:nonzero;stroke:none"
         d="m 482.688,355.84 c 2.785,-0.906 5.261,-1.703 7.027,-1.781 -0.156,-5.223 -0.324,-11.985 -2.231,-17.856 -5.582,-17.195 -19.586,-25.351 -34.996,-20.344 -17.578,5.715 -22.211,22.727 -17.293,37.844 2.157,6.637 5.301,11.578 6.825,14.156 2.679,-0.699 6.835,-1.535 12.886,-2.82 l -0.488,-2.574 c -10.371,1.152 -14.48,-4.68 -16.531,-10.996 -3.465,-10.641 2.273,-20.524 16.316,-25.078 11.871,-3.871 25.793,-2.762 30.356,11.281 0.808,2.469 0.964,4.031 0.832,5.437 -0.145,1.661 -1.262,2.704 -4.348,3.704 l -6.465,2.113 c -5.254,1.699 -5.812,1.543 -9.086,-6.43 l -2.312,0.758 6.968,21.434 2.309,-0.75 c -0.691,-4.211 -0.488,-4.622 4.918,-6.372 l 5.313,-1.726" /><path
         id="path46"
         style="fill:#a20641;fill-opacity:1;fill-rule:nonzero;stroke:none"
         d="m 445.605,398.668 2.25,-0.32 c -0.441,-6.485 0.11,-7.219 8.79,-8.45 l 27.949,-3.972 c 4.652,-0.664 6.965,-0.5 8.133,0.726 1.14,1.227 1.679,3.852 2.046,6.434 0.536,3.687 1.622,13.477 -0.152,15.449 -1.336,1.582 -3.883,3.25 -7.551,5.082 l 0.844,2.496 c 2.5,-0.843 10.445,-3.769 12.754,-4.75 l -6.191,-43.554 -2.262,0.32 c 0.476,6.812 -0.074,7.551 -8.742,8.777 l -28.106,3.992 c -8.668,1.231 -9.406,0.68 -10.808,-5.679 l -2.243,0.324 3.289,23.125" /><path
         id="path48"
         style="fill:#a20641;fill-opacity:1;fill-rule:nonzero;stroke:none"
         d="m 471.84,428.387 c 14.633,-1.004 26.41,4.691 27.187,16.179 0.571,8.422 -6.027,15.375 -21.234,16.411 -16.84,1.152 -26.758,-4.918 -27.496,-15.758 -0.586,-8.574 7.203,-15.864 21.543,-16.832 z m 3.68,43.32 c 17.23,-1.184 27.66,-14.004 26.601,-29.379 -1.082,-15.93 -13.695,-25.648 -28.426,-24.644 -13.277,0.902 -27.757,11.25 -26.461,30.261 0.954,13.996 12.504,24.836 28.286,23.762" /><path
         id="path50"
         style="fill:#a20641;fill-opacity:1;fill-rule:nonzero;stroke:none"
         d="m 475.316,489.852 v 3.082 c 0,3.246 -0.476,5.515 -2.109,7.621 -2.594,3.246 -6.488,4.383 -10.383,4.383 -8.429,0 -11.347,-5.84 -11.347,-11.032 0,-3.894 0.32,-4.054 2.918,-4.054 z m -26.925,6.089 c 0,5.918 0.656,10.133 2.761,13.379 2.11,3.164 5.516,5.348 10.289,5.348 6.825,0 11.614,-4.215 14.039,-10.789 2.278,1.305 7.958,4.465 11.602,7.062 4.453,3.079 7.383,5.192 8.988,6.727 1.957,1.945 3.18,3.246 3.743,5.602 l 2.117,-0.325 -0.164,-3.406 c -0.657,-8.844 -2.93,-11.601 -7.469,-14.762 -3.738,-2.597 -8.906,-5.273 -13.137,-7.629 -2.273,-1.296 -3.082,-2.273 -3.082,-4.695 v -2.601 h 10.871 c 8.754,0 9.41,0.648 9.887,6.816 h 2.273 v -22.875 h -2.273 c -0.477,6.488 -1.133,7.133 -9.887,7.133 h -28.386 c -8.766,0 -9.411,-0.645 -9.895,-6.805 h -2.277 v 21.82" /><path
         id="path52"
         style="fill:#a20641;fill-opacity:1;fill-rule:nonzero;stroke:none"
         d="m 448.391,551.672 h 2.277 c 0.484,-6.156 1.129,-6.817 9.895,-6.817 h 28.386 c 8.754,0 9.41,0.661 9.887,6.817 h 2.273 v -22.871 h -2.273 c -0.477,6.324 -1.133,6.972 -9.887,6.972 h -28.386 c -8.766,0 -9.411,-0.648 -9.895,-6.972 h -2.277 v 22.871" /><path
         id="path54"
         style="fill:#a20641;fill-opacity:1;fill-rule:nonzero;stroke:none"
         d="m 478.734,573.348 v 12.89 l -17.851,-6.328 v -0.234 z m -31.32,10.871 15.09,5.59 c 9.894,3.652 19.957,7.218 28.055,10.3 7.226,2.762 7.8,3.895 8.277,8.598 h 2.273 v -21.332 h -2.273 l -0.336,2.273 c -0.473,3.079 -1.297,3.239 -4.367,2.27 -2.418,-0.813 -7.457,-2.758 -11.672,-4.461 v -15.004 c 2.43,-1.055 6.969,-2.512 10.387,-3.652 4.285,-1.449 5.343,-0.809 5.761,2.758 l 0.227,2.269 h 2.273 v -18 h -2.273 c -0.645,5.031 -0.965,5.918 -8.277,8.758 l -42.168,16.383 -0.977,3.25" /><path
         id="path56"
         style="fill:#a20641;fill-opacity:1;fill-rule:nonzero;stroke:none"
         d="m 448.391,630.117 38.691,17.918 -38.691,16.957 v 15.324 h 2.277 c 0.641,-6.57 0.973,-6.894 9.895,-6.73 l 28.386,0.809 c 9.078,0.25 9.242,0.492 9.887,7.054 h 2.273 V 658.82 h -2.273 c -0.645,6.332 -0.809,6.578 -9.887,6.489 l -31.152,-0.317 v -0.328 l 42.336,-18.414 v -2.43 l -40.715,-17.761 v -0.321 l 21.02,-0.574 c 7.285,-0.152 11.753,-0.078 14.183,0.25 3.082,0.324 3.738,2.024 4.215,7.371 h 2.273 V 613.57 h -2.273 c -0.336,4.055 -1.133,5.676 -4.215,6.243 -2.43,0.402 -7.219,1.058 -15.008,1.464 l -16.707,0.887 c -10.789,0.566 -11.597,0 -12.238,-6.973 h -2.277 v 14.926" /><path
         id="path58"
         style="fill:#a20641;fill-opacity:1;fill-rule:nonzero;stroke:none"
         d="M 419.746,677.223 V 414.762 c 0,-96.367 -164.742,-136.782 -164.742,-136.782 0,0 -164.7618,40.415 -164.7618,136.782 V 677.223 H 419.746" /><path
         id="path60"
         style="fill:#ffffff;fill-opacity:1;fill-rule:nonzero;stroke:none"
         d="m 99.2695,586.285 2.0235,10.758 h 15.277 v -48.656 h -12.191 v 37.898 h -5.1095" /><path
         id="path62"
         style="fill:#ffffff;fill-opacity:1;fill-rule:nonzero;stroke:none"
         d="m 137.508,563.137 c 0,-3.266 2.57,-5.879 5.773,-5.879 3.192,0 5.75,2.613 5.75,5.879 0,3.324 -2.558,6.015 -5.75,6.015 -3.203,0 -5.773,-2.691 -5.773,-6.015 z m 0.449,21.75 c 0,-3.004 2.383,-5.438 5.324,-5.438 2.942,0 5.301,2.434 5.301,5.438 0,3.004 -2.359,5.441 -5.301,5.441 -2.941,0 -5.324,-2.437 -5.324,-5.441 z m 21.758,0.386 c 0,-5.121 -3.192,-9.468 -7.61,-10.945 v -0.125 c 5.762,-1.922 9.598,-6.328 9.598,-12.66 0,-9.984 -10.109,-14.586 -18.422,-14.586 -8.336,0 -18.445,4.602 -18.445,14.586 0,6.332 3.848,10.738 9.609,12.66 v 0.125 c -4.406,1.477 -7.609,5.824 -7.609,10.945 0,9.211 8.18,13.758 16.445,13.758 8.242,0 16.434,-4.547 16.434,-13.758" /><path
         id="path64"
         style="fill:#ffffff;fill-opacity:1;fill-rule:nonzero;stroke:none"
         d="m 168.109,584.949 v 11.653 h 40.262 l -26.937,-48.215 h -15.11 l 21.364,36.562 h -19.579" /><path
         id="path66"
         style="fill:#ffffff;fill-opacity:1;fill-rule:nonzero;stroke:none"
         d="m 219.891,573.227 c 0,-4.543 1.484,-14.614 7.761,-14.614 6.289,0 7.789,10.071 7.789,14.614 0,4.539 -1.5,14.488 -7.789,14.488 -6.277,0 -7.761,-9.949 -7.761,-14.488 z m 27.648,-0.067 c 0,-12.187 -5.894,-25.301 -19.887,-25.301 -13.98,0 -19.886,13.114 -19.886,25.301 0,12.188 5.964,25.305 19.886,25.305 13.934,0 19.887,-13.117 19.887,-25.305" /><path
         id="path68"
         style="fill:#ffffff;fill-opacity:1;fill-rule:nonzero;stroke:none"
         d="m 126.16,469.676 c 0,0 4.965,-3.617 -3.957,-24.903 -1.808,-4.285 -9.75,-19.25 -0.164,-30.066 6.785,-7.648 17.598,-4.809 17.598,-4.809 0.679,-4.101 1.015,-6.14 1.015,-6.14 h -7.847 c -7.184,-0.352 -7.528,-8.219 -7.528,-8.219 v -33.172 l 5.477,-5.461 h 18.101 c 0.36,8.207 -10.242,11.625 -10.242,11.625 v 14.364 h 16.758 c 8.883,0.675 13.684,17.777 13.684,17.777 l 6.488,-0.692 c 0.332,-1.023 -9.242,-18.457 -9.242,-18.457 l 19.496,-18.464 v -5.473 h 21.195 c 1.035,5.141 -9.23,9.582 -9.23,9.582 l -13.324,14.355 c -1.704,1.852 -0.5,3.735 1.796,4.497 2.528,0.832 4.563,1.414 7.434,2.503 2.867,1.102 15.039,8.723 9.906,23.43 -5.039,14.453 -21.875,8.543 -21.875,10.262 0,1.695 8.883,22.215 8.883,22.215 l -7.191,10.609 8.562,-5.476 22.567,4.109 c 2.378,-19.156 11.277,-14.363 11.277,-14.363 v 14.363 c 0,0 -0.324,9.445 -8.899,12.305 -10.25,3.41 -17.433,1.371 -20.515,2.054 -3.063,0.684 -2.18,3.41 -2.18,3.41 l 13.481,-0.336 11.957,9.918 6.511,0.684 c 11.957,2.043 7.516,11.277 7.516,11.277 0,0 -10.602,0 -17.102,0 -6.492,0 -23.246,-12.304 -23.246,-12.304 0,0 -2.406,13.675 10.254,18.461 12.649,4.781 9.918,8.539 9.918,8.539 l -11.965,-4.098 c 0,0 -1.359,1.371 0.676,4.449 1.098,1.657 10.613,5.125 10.613,5.125 7.512,2.735 5.118,8.887 5.118,8.887 l -13.325,-1.359 c -3.082,2.726 -2.75,3.074 -7.191,3.757 -4.441,0.684 -11.277,-5.472 -10.586,-3.418 0.664,2.047 1.356,8.207 2.035,14.36 0.617,5.527 -17.422,-20.176 -17.422,-20.176 -23.246,-44.102 -16.754,-73.852 -16.754,-73.852 -15.398,-7.175 -15.398,-23.816 -15.398,-19.488 0,24.801 8.18,23.051 7.848,38.711 -0.332,15.645 -17.09,14.293 -17.09,14.293 -6.574,-0.094 -8.535,-4.113 -8.535,-4.113 0,0 3.308,0.695 4.644,-1.082" /><path
         id="path70"
         style="fill:#a20641;fill-opacity:1;fill-rule:nonzero;stroke:none"
         d="m 192.297,516.574 h 9.406 l -1.937,3.246 z" /><path
         id="path72"
         style="fill:#ffffff;fill-opacity:1;fill-rule:nonzero;stroke:none"
         d="m 255.129,356.078 c 0,0 -13.277,-1.359 -25.125,10.469 -11.313,11.308 -10.887,24.707 -10.887,24.707 v 25.707 c 0,0 -3.187,0.84 -3.344,3.98 -0.214,3.977 3.977,3.344 3.977,3.344 h 8.371 c -0.418,-8.801 5.039,-7.746 5.039,-7.746 5.848,-0.203 4.598,7.746 4.598,7.746 h 17.371 -0.07 17.375 c 0,0 -1.278,-7.949 4.597,-7.746 0,0 5.442,-1.055 5.035,7.746 h 8.372 c 0,0 4.179,0.633 3.964,-3.344 -0.152,-3.14 -3.343,-3.98 -3.343,-3.98 v -25.707 c 0,0 0.425,-13.399 -10.875,-24.707 -11.836,-11.828 -25.125,-10.469 -25.125,-10.469 h 0.07" /><path
         id="path74"
         style="fill:#ffffff;fill-opacity:1;fill-rule:nonzero;stroke:none"
         d="m 383.992,469.676 c 0,0 -4.976,-3.617 3.953,-24.903 1.801,-4.285 9.743,-19.25 0.157,-30.066 -6.789,-7.648 -17.602,-4.809 -17.602,-4.809 -0.68,-4.101 -1.023,-6.14 -1.023,-6.14 h 7.859 c 7.195,-0.352 7.527,-8.219 7.527,-8.219 v -33.172 l -5.476,-5.461 h -18.114 c -0.335,8.207 10.262,11.625 10.262,11.625 v 14.364 H 354.77 c -8.883,0.675 -13.661,17.777 -13.661,17.777 l -6.5,-0.692 c -0.343,-1.023 9.231,-18.457 9.231,-18.457 l -19.496,-18.464 v -5.473 H 303.16 c -1.023,5.141 9.219,9.582 9.219,9.582 l 13.336,14.355 c 1.703,1.852 0.512,3.735 -1.797,4.497 -2.539,0.832 -4.574,1.414 -7.422,2.503 -2.894,1.102 -15.062,8.723 -9.918,23.43 5.035,14.453 21.875,8.543 21.875,10.262 0,1.695 -8.883,22.215 -8.883,22.215 l 7.18,10.609 -8.562,-5.476 -22.555,4.109 c -2.395,-19.156 -11.289,-14.363 -11.289,-14.363 v 14.363 c 0,0 0.336,9.445 8.894,12.305 10.254,3.41 17.434,1.371 20.508,2.054 3.082,0.684 2.192,3.41 2.192,3.41 l -13.469,-0.336 -11.969,9.918 -6.5,0.684 c -11.969,2.043 -7.516,11.277 -7.516,11.277 0,0 10.598,0 17.102,0 6.477,0 23.242,-12.304 23.242,-12.304 0,0 2.395,13.675 -10.25,18.461 -12.66,4.781 -9.922,8.539 -9.922,8.539 l 11.957,-4.098 c 0,0 1.383,1.371 -0.668,4.449 -1.105,1.657 -10.621,5.125 -10.621,5.125 -7.515,2.735 -5.121,8.887 -5.121,8.887 l 13.352,-1.359 c 3.058,2.726 2.715,3.074 7.168,3.757 4.441,0.684 11.289,-5.472 10.586,-3.418 -0.668,2.047 -1.36,8.207 -2.036,14.36 -0.609,5.527 17.43,-20.176 17.43,-20.176 23.246,-44.102 16.77,-73.852 16.77,-73.852 15.375,-7.175 15.375,-23.816 15.375,-19.488 0,24.801 -8.168,23.051 -7.836,38.711 0.32,15.645 17.074,14.293 17.074,14.293 6.574,-0.094 8.551,-4.113 8.551,-4.113 0,0 -3.309,0.695 -4.645,-1.082" /><path
         id="path76"
         style="fill:#a20641;fill-opacity:1;fill-rule:nonzero;stroke:none"
         d="m 317.855,516.574 h -9.41 l 1.942,3.246 z" /><path
         id="path78"
         style="fill:#ffffff;fill-opacity:1;fill-rule:nonzero;stroke:none"
         d="m 256.945,454.047 0.024,66.418 0.011,0.051 c 0.977,0.586 1.657,1.656 1.657,2.89 0,1.84 -1.5,3.332 -3.336,3.332 -0.082,0 -0.129,-0.082 -0.211,-0.086 -0.082,0.004 -0.133,0.086 -0.215,0.086 -1.836,0 -3.332,-1.492 -3.332,-3.332 0,-1.234 0.676,-2.304 1.652,-2.89 l 0.012,-0.051 0.023,-66.418 -21.945,-22.281 v -7.082 h 3.297 l 0.023,5.644 20.485,20.895 20.48,-20.895 0.024,-5.644 h 3.301 v 7.082 l -21.95,22.281" /><path
         id="path80"
         style="fill:#edac09;fill-opacity:1;fill-rule:nonzero;stroke:none"
         d="m 255.383,677.223 v -21.477 l 23.633,21.477 z" /><path
         id="path82"
         style="fill:#edac09;fill-opacity:1;fill-rule:nonzero;stroke:none"
         d="m 397.168,548.336 h 22.57 v 21.473 z" /><path
         id="path84"
         style="fill:#edac09;fill-opacity:1;fill-rule:nonzero;stroke:none"
         d="m 302.641,677.223 -47.25,-42.961 v -21.489 l 70.882,64.45 h -23.632" /><path
         id="path86"
         style="fill:#edac09;fill-opacity:1;fill-rule:nonzero;stroke:none"
         d="m 349.91,677.223 -94.527,-85.922 v -21.485 l 118.16,107.407 H 349.91" /><path
         id="path88"
         style="fill:#edac09;fill-opacity:1;fill-rule:nonzero;stroke:none"
         d="M 397.168,677.223 255.387,548.328 h 23.633 l 140.718,128.895 h -22.57" /><path
         id="path90"
         style="fill:#edac09;fill-opacity:1;fill-rule:nonzero;stroke:none"
         d="m 302.641,548.336 h 23.632 l 93.469,85.918 v 21.488 L 302.641,548.336" /><path
         id="path92"
         style="fill:#edac09;fill-opacity:1;fill-rule:nonzero;stroke:none"
         d="m 349.91,548.336 h 23.633 l 46.203,42.957 v 21.488 L 349.91,548.336" /><path
         id="path94"
         style="fill:#231f20;fill-opacity:1;fill-rule:nonzero;stroke:none"
         d="m 618.215,399.055 v 14.347 c 42.387,2.52 45.457,5.625 45.457,52.418 v 145.356 c 0,46.808 -3.699,49.273 -42.426,51.793 v 14.34 H 756.23 v -14.34 c -41.714,-2.52 -45.414,-4.985 -45.414,-51.793 V 463.934 c 0,-24.325 3.032,-36.797 11.571,-41.168 8.422,-4.368 21.172,-4.996 43.527,-4.996 23.609,0 43.016,4.367 52.652,15.601 7.325,7.481 14.563,21.844 20.661,41.817 l 15.707,-1.911 c -3.032,-14.324 -12.121,-62.355 -15.707,-74.222 H 618.215" /><path
         id="path96"
         style="fill:#231f20;fill-opacity:1;fill-rule:nonzero;stroke:none"
         d="m 1009.32,410.293 c 46.59,0 83.51,31.187 83.51,118.535 0,71.113 -33.93,137.266 -94.455,137.266 -48.992,0 -84.098,-43.071 -84.098,-119.164 0,-81.11 35.106,-136.637 95.043,-136.637 z M 859.773,531.938 c 0,104.82 79.848,152.871 144.077,152.871 87.13,0 143.48,-63.008 143.48,-143.508 0,-97.949 -72.06,-149.723 -142.89,-149.723 -93.823,0 -144.667,72.981 -144.667,140.36" /><path
         id="path98"
         style="fill:#231f20;fill-opacity:1;fill-rule:nonzero;stroke:none"
         d="m 1206.72,399.055 v 14.347 c 43.6,3.125 46.63,6.239 46.63,51.789 v 38.055 c 0,11.863 -1.22,15.606 -9.13,29.317 -12.71,23.105 -29.67,51.792 -57.49,99.199 -15.71,27.465 -19.99,28.074 -47.23,31.207 v 14.34 h 121.1 v -14.34 l -18.78,-2.52 c -13.93,-1.851 -14.56,-5.59 -8.46,-18.086 2.99,-6.234 41.76,-74.851 56.28,-99.191 18.77,33.078 37.5,74.871 47.18,95.453 7.92,17.477 6.69,19.973 -9.68,21.824 l -17.55,2.52 v 14.34 h 106.57 v -14.34 c -32.7,-3.133 -35.1,-7.5 -51.43,-31.84 -16.38,-24.32 -34.52,-54.27 -54.51,-90.457 -9.09,-16.844 -9.72,-21.192 -9.72,-30.559 v -44.922 c 0,-45.55 3.7,-48.664 48.48,-51.789 v -14.347 h -142.26" /><path
         id="path100"
         style="fill:#231f20;fill-opacity:1;fill-rule:nonzero;stroke:none"
         d="m 1550.09,410.293 c 46.63,0 83.5,31.187 83.5,118.535 0,71.113 -33.88,137.266 -94.41,137.266 -49.03,0 -84.13,-43.071 -84.13,-119.164 0,-81.11 35.1,-136.637 95.04,-136.637 z m -149.55,121.645 c 0,104.82 79.89,152.871 144.07,152.871 87.13,0 143.49,-63.008 143.49,-143.508 0,-97.949 -72.06,-149.723 -142.89,-149.723 -93.83,0 -144.67,72.981 -144.67,140.36" /><path
         id="path102"
         style="fill:#231f20;fill-opacity:1;fill-rule:nonzero;stroke:none"
         d="m 1709.27,399.055 v 14.347 c 42.35,2.52 45.38,5.625 45.38,52.418 v 145.356 c 0,46.808 -3.62,49.273 -42.39,51.793 v 14.34 h 135.03 v -14.34 c -41.79,-2.52 -45.42,-4.985 -45.42,-51.793 V 463.934 c 0,-24.325 3.03,-36.797 11.53,-41.168 8.46,-4.368 21.17,-4.996 43.61,-4.996 23.57,0 42.93,4.367 52.61,15.601 7.28,7.481 14.57,21.844 20.59,41.817 l 15.74,-1.911 c -3.03,-14.324 -12.08,-62.355 -15.74,-74.222 h -220.94" /><path
         id="path104"
         style="fill:#231f20;fill-opacity:1;fill-rule:nonzero;stroke:none"
         d="m 2047.6,522.57 h 70.21 l -35.07,94.844 h -1.22 z m 76.31,-109.168 11.49,1.258 c 16.96,1.867 22.39,6.848 10.31,36.168 l -20.58,50.551 h -84.14 c -4.29,-9.996 -14.56,-39.316 -20.58,-58.027 -7.28,-21.215 -1.82,-27.43 15.7,-28.692 l 13.93,-1.258 V 399.055 H 1944.1 v 14.347 c 26.64,3.125 36.99,5.625 54.5,48.661 l 89.61,218.988 15.08,3.758 90.24,-230.243 c 14.52,-36.796 26.05,-39.296 52.65,-41.164 v -14.347 h -122.27 v 14.347" /><path
         id="path106"
         style="fill:#231f20;fill-opacity:1;fill-rule:nonzero;stroke:none"
         d="m 618.215,342.43 h 19.64 v -56.903 c 0,-6.347 0.743,-11.011 2.247,-13.918 2.332,-5.203 7.441,-7.781 15.281,-7.781 7.824,0 12.879,2.578 15.211,7.781 1.504,2.907 2.246,7.571 2.246,13.918 v 56.903 h 19.664 v -56.938 c 0,-9.855 -1.52,-17.539 -4.551,-22.996 -5.711,-10.039 -16.555,-15.094 -32.57,-15.094 -16.024,0 -26.899,5.055 -32.621,15.094 -3.063,5.457 -4.547,13.141 -4.547,22.996 v 56.938" /><path
         id="path108"
         style="fill:#231f20;fill-opacity:1;fill-rule:nonzero;stroke:none"
         d="m 727.609,342.43 h 20.309 l 36.746,-64.598 v 64.598 h 18.051 v -92.633 h -19.367 l -37.7,65.711 v -65.711 h -18.039 v 92.633" /><path
         id="path110"
         style="fill:#231f20;fill-opacity:1;fill-rule:nonzero;stroke:none"
         d="m 856.234,249.797 h -19.246 v 92.633 h 19.246 v -92.633" /><path
         id="path112"
         style="fill:#231f20;fill-opacity:1;fill-rule:nonzero;stroke:none"
         d="m 944.855,342.43 h 20.118 l -31.586,-92.633 h -18.313 l -31.289,92.633 h 20.656 l 20.11,-70.332 20.304,70.332" /><path
         id="path114"
         style="fill:#231f20;fill-opacity:1;fill-rule:nonzero;stroke:none"
         d="m 1056.35,326.004 h -48.99 v -19.652 h 44.96 v -16.086 h -44.96 v -23.828 h 51.26 v -16.641 h -70.19 v 92.633 h 67.92 v -16.426" /><path
         id="path116"
         style="fill:#231f20;fill-opacity:1;fill-rule:nonzero;stroke:none"
         d="m 1107.65,326.32 v -24.886 h 20.8 c 4.12,0 7.23,0.531 9.31,1.539 3.66,1.738 5.51,5.203 5.51,10.394 0,5.617 -1.79,9.414 -5.32,11.321 -1.99,1.082 -4.99,1.632 -8.95,1.632 z m 39.99,13.727 c 3.41,-1.496 6.28,-3.656 8.65,-6.5 1.97,-2.352 3.51,-4.938 4.66,-7.777 1.15,-2.852 1.72,-6.125 1.72,-9.743 0,-4.375 -1.13,-8.718 -3.33,-12.98 -2.24,-4.242 -5.89,-7.262 -10.99,-9.012 4.26,-1.715 7.31,-4.152 9.07,-7.32 1.79,-3.184 2.67,-8.004 2.67,-14.5 v -6.192 c 0,-4.25 0.18,-7.109 0.51,-8.636 0.52,-2.395 1.72,-4.121 3.57,-5.246 v -2.344 h -21.35 c -0.6,2.058 -1.01,3.687 -1.25,4.961 -0.53,2.605 -0.8,5.258 -0.84,7.972 l -0.09,8.606 c -0.12,5.934 -1.12,9.855 -3.11,11.816 -1.95,1.981 -5.61,2.957 -10.99,2.957 h -18.89 v -36.312 h -18.93 v 92.633 h 44.29 c 6.33,-0.149 11.2,-0.934 14.63,-2.383" /><path
         id="path118"
         style="fill:#231f20;fill-opacity:1;fill-rule:nonzero;stroke:none"
         d="m 1204.94,278.395 c 0.58,-4.243 1.75,-7.399 3.54,-9.5 3.19,-3.805 8.69,-5.719 16.46,-5.719 4.68,0 8.45,0.527 11.39,1.523 5.52,1.91 8.25,5.492 8.25,10.727 0,3.051 -1.38,5.426 -4.06,7.121 -2.69,1.633 -6.98,3.074 -12.84,4.305 l -10.05,2.203 c -9.84,2.183 -16.61,4.578 -20.3,7.101 -6.26,4.262 -9.37,10.961 -9.37,20.063 0,8.277 3.08,15.168 9.17,20.66 6.11,5.488 15.07,8.242 26.91,8.242 9.86,0 18.3,-2.605 25.27,-7.758 6.97,-5.191 10.65,-12.695 10.98,-22.531 h -18.61 c -0.32,5.555 -2.82,9.516 -7.44,11.871 -3.11,1.547 -6.93,2.328 -11.54,2.328 -5.12,0 -9.2,-1.015 -12.24,-3.027 -3.07,-1.996 -4.56,-4.813 -4.56,-8.418 0,-3.305 1.49,-5.785 4.48,-7.398 1.93,-1.102 6.04,-2.395 12.32,-3.836 l 16.25,-3.836 c 7.13,-1.676 12.46,-3.93 16.02,-6.731 5.51,-4.355 8.27,-10.652 8.27,-18.898 0,-8.457 -3.27,-15.485 -9.79,-21.114 -6.56,-5.562 -15.8,-8.371 -27.73,-8.371 -12.22,0 -21.79,2.778 -28.78,8.27 -6.98,5.508 -10.48,13.078 -10.48,22.723 h 18.48" /><path
         id="path120"
         style="fill:#231f20;fill-opacity:1;fill-rule:nonzero;stroke:none"
         d="m 1312.04,249.797 h -19.22 v 92.633 h 19.22 v -92.633" /><path
         id="path122"
         style="fill:#231f20;fill-opacity:1;fill-rule:nonzero;stroke:none"
         d="m 1416.64,342.43 v -16.426 h -27.71 v -76.207 h -19.46 v 76.207 h -27.85 v 16.426 h 75.02" /><path
         id="path124"
         style="fill:#231f20;fill-opacity:1;fill-rule:nonzero;stroke:none"
         d="m 1489.58,342.43 h 21.9 l -30.95,-57.91 v -34.723 h -19.37 v 34.723 l -32.03,57.91 h 22.81 l 19.22,-40.348 18.42,40.348" /><path
         id="path126"
         style="fill:#231f20;fill-opacity:1;fill-rule:nonzero;stroke:none"
         d="m 1593.17,332.734 c 7.48,7.641 16.94,11.422 28.49,11.422 15.41,0 26.69,-5.097 33.81,-15.336 3.94,-5.722 6.04,-11.476 6.34,-17.273 h -19.38 c -1.2,4.449 -2.77,7.801 -4.72,10.066 -3.46,4.008 -8.57,6.02 -15.33,6.02 -6.89,0 -12.31,-2.797 -16.3,-8.5 -3.98,-5.68 -6,-13.715 -6,-24.11 0,-10.378 2.12,-18.136 6.32,-23.328 4.22,-5.183 9.54,-7.757 16,-7.757 6.64,0 11.7,2.226 15.2,6.656 1.93,2.394 3.5,5.976 4.79,10.734 h 19.23 c -1.66,-10.078 -5.9,-18.305 -12.72,-24.621 -6.8,-6.305 -15.56,-9.496 -26.22,-9.496 -13.17,0 -23.53,4.281 -31.06,12.824 -7.52,8.586 -11.29,20.352 -11.29,35.317 0,16.152 4.28,28.625 12.84,37.382" /><path
         id="path128"
         style="fill:#231f20;fill-opacity:1;fill-rule:nonzero;stroke:none"
         d="m 1689.07,249.797 v 92.633 h 19.22 v -35.336 h 36.02 v 35.336 h 19.22 v -92.633 h -19.22 v 41.348 h -36.02 v -41.348 h -19.22" /><path
         id="path130"
         style="fill:#231f20;fill-opacity:1;fill-rule:nonzero;stroke:none"
         d="m 1818.73,249.797 h -19.23 v 92.633 h 19.23 v -92.633" /><path
         id="path132"
         style="fill:#231f20;fill-opacity:1;fill-rule:nonzero;stroke:none"
         d="m 1861.62,332.734 c 7.47,7.641 16.94,11.422 28.45,11.422 15.45,0 26.73,-5.097 33.83,-15.336 3.92,-5.722 6.04,-11.476 6.34,-17.273 h -19.35 c -1.21,4.449 -2.8,7.801 -4.73,10.066 -3.43,4.008 -8.56,6.02 -15.35,6.02 -6.87,0 -12.31,-2.797 -16.32,-8.5 -3.96,-5.68 -5.96,-13.715 -5.96,-24.11 0,-10.378 2.1,-18.136 6.3,-23.328 4.22,-5.183 9.54,-7.757 16,-7.757 6.66,0 11.73,2.226 15.2,6.656 1.95,2.394 3.54,5.976 4.81,10.734 h 19.21 c -1.67,-10.078 -5.87,-18.305 -12.68,-24.621 -6.84,-6.305 -15.58,-9.496 -26.22,-9.496 -13.18,0 -23.55,4.281 -31.09,12.824 -7.53,8.586 -11.3,20.352 -11.3,35.317 0,16.152 4.28,28.625 12.86,37.382" /><path
         id="path134"
         style="fill:#231f20;fill-opacity:1;fill-rule:nonzero;stroke:none"
         d="m 1974.79,284.785 h 23.72 l -11.7,36.449 z m 1.27,57.645 h 21.9 l 32.77,-92.633 h -21 l -6.11,19.047 h -34.1 l -6.26,-19.047 H 1943 l 33.06,92.633" /><path
         id="path136"
         style="fill:#231f20;fill-opacity:1;fill-rule:nonzero;stroke:none"
         d="m 2112.47,313.527 c -1.46,6.309 -5.04,10.715 -10.72,13.25 -3.2,1.375 -6.72,2.043 -10.62,2.043 -7.46,0 -13.59,-2.785 -18.36,-8.433 -4.81,-5.598 -7.23,-14.078 -7.23,-25.364 0,-11.351 2.59,-19.406 7.82,-24.132 5.18,-4.707 11.09,-7.063 17.68,-7.063 6.51,0 11.83,1.848 15.96,5.567 4.16,3.742 6.75,8.617 7.68,14.66 h -21.43 v 15.429 h 38.6 v -49.687 h -12.83 l -1.95,11.555 c -3.73,-4.368 -7.08,-7.454 -10.07,-9.243 -5.08,-3.136 -11.36,-4.707 -18.84,-4.707 -12.27,0 -22.32,4.262 -30.14,12.75 -8.16,8.532 -12.25,20.192 -12.25,35.051 0,14.985 4.11,26.985 12.35,36.035 8.27,9.032 19.17,13.567 32.73,13.567 11.79,0 21.24,-2.989 28.39,-8.946 7.12,-5.976 11.25,-13.437 12.29,-22.332 h -19.06" /><path
         id="path138"
         style="fill:#231f20;fill-opacity:1;fill-rule:nonzero;stroke:none"
         d="m 2222.45,272.098 c 4.5,5.66 6.74,13.715 6.74,24.121 0,10.41 -2.24,18.422 -6.74,24.125 -4.51,5.66 -10.58,8.476 -18.25,8.476 -7.67,0 -13.78,-2.816 -18.38,-8.468 -4.55,-5.637 -6.82,-13.692 -6.82,-24.133 0,-10.406 2.27,-18.461 6.82,-24.121 4.6,-5.66 10.71,-8.481 18.38,-8.481 7.67,0 13.74,2.821 18.25,8.481 z m 12.06,-14.075 c -6.97,-7.199 -17.08,-10.812 -30.31,-10.812 -13.27,0 -23.36,3.613 -30.38,10.812 -9.36,8.836 -14.05,21.567 -14.05,38.196 0,16.961 4.69,29.742 14.05,38.219 7.02,7.187 17.11,10.789 30.38,10.789 13.23,0 23.34,-3.602 30.31,-10.789 9.37,-8.477 14.04,-21.258 14.04,-38.219 0,-16.629 -4.67,-29.36 -14.04,-38.196" /><path
         id="path140"
         style="fill:#231f20;fill-opacity:1;fill-rule:nonzero;stroke:none"
         d="m 43.0156,69.2852 c 1.1172,-0.1329 2.5664,-0.1797 4.3555,-0.1797 6.1875,0 11.0195,0.8359 14.5273,2.5664 6.5274,3.1758 9.75,9.2148 9.75,18.1054 0,5.2852 -1.457,9.0079 -4.3789,11.1637 -2.9375,2.164 -6.832,3.262 -11.7265,3.262 -1.9492,0 -3.4219,-0.195 -4.4219,-0.558 -0.9844,-0.368 -1.7031,-1.305 -2.1523,-2.817 L 40.168,69.6992 c 0.789,-0.1445 1.7265,-0.289 2.8476,-0.414 z M 8.5625,28.0391 c 2.9336,0.2187 4.9766,0.7539 6.0586,1.582 1.7305,1.2422 3.1289,3.7852 4.2266,7.7187 l 15.4492,55.625 1.1562,4.7735 c 0.125,0.582 0.2344,1.0937 0.2813,1.582 0.0703,0.461 0.0859,0.8637 0.0859,1.2427 0,1.96 -0.6562,3.312 -2.0234,4.054 -1.3242,0.731 -3.6524,1.18 -6.9141,1.41 v 2.024 h 31.0469 c 6.4023,0 11.5781,-0.828 15.4844,-2.41 7.4023,-2.961 11.1054,-8.5629 11.1054,-16.7308 0,-4.9883 -1.4726,-9.3985 -4.4218,-13.2579 -5.6602,-7.4648 -15.8633,-11.2148 -30.5821,-11.2148 -1.789,0 -3.5781,0.0781 -5.3437,0.207 -1.7656,0.1485 -3.4727,0.3946 -5.1016,0.7227 L 32.2891,41.0625 c -0.4141,-1.4219 -0.7071,-2.6016 -0.9024,-3.5664 -0.375,-1.6406 -0.5586,-2.8945 -0.5586,-3.8086 0,-2.0586 0.6211,-3.4687 1.875,-4.2383 1.2383,-0.789 3.4805,-1.2539 6.6953,-1.4101 V 26.0156 H 8.5625 v 2.0235" /><path
         id="path142"
         style="fill:#231f20;fill-opacity:1;fill-rule:nonzero;stroke:none"
         d="m 111.742,81.4961 c 0.168,-0.2188 0.231,-0.4961 0.231,-0.7656 -0.035,-0.4375 -0.098,-0.7657 -0.157,-0.961 l -6.273,-23.8632 1.363,2.789 c 2.949,5.7813 6.383,11.0313 10.301,15.8008 3.934,4.7617 7.684,7.1367 11.227,7.1367 1.921,0 3.382,-0.6328 4.441,-1.8906 1.035,-1.2774 1.547,-2.7266 1.547,-4.3672 0,-1.8398 -0.512,-3.3711 -1.547,-4.5664 -1.02,-1.2188 -2.457,-1.8125 -4.273,-1.8125 -1.254,0 -2.192,0.2383 -2.832,0.7383 -0.661,0.5156 -1.149,1.0742 -1.528,1.7422 l -0.715,1.3672 c -0.172,0.2421 -0.351,0.4335 -0.574,0.5703 -0.23,0.1679 -0.508,0.2304 -0.824,0.2304 -1.621,0 -3.926,-2.2422 -6.953,-6.6836 -3.012,-4.4687 -5.711,-9.289 -8.086,-14.5 -1.438,-3.1523 -3.043,-7.332 -4.82,-12.5273 -1.11,-3.2773 -2.5942,-7.9141 -4.4341,-13.918 H 88.3906 L 98.6875,63.125 c 0.5742,2.1055 1.0508,3.9805 1.3905,5.6641 0.344,1.6406 0.524,2.9922 0.524,4.0547 0,1.2148 -0.317,2.1406 -0.9379,2.7968 -0.6094,0.6328 -1.6563,0.9492 -3.1797,0.9492 -0.4961,0 -1.1055,-0.0351 -1.836,-0.1093 -0.7304,-0.086 -1.6054,-0.1836 -2.6328,-0.3047 v 2.0351 l 2.461,0.461 c 3.2031,0.6562 6.7074,1.3515 10.4964,2.0703 3.797,0.7422 5.808,1.0976 6,1.0976 0.379,0 0.636,-0.0976 0.769,-0.3437" /><path
         id="path144"
         style="fill:#231f20;fill-opacity:1;fill-rule:nonzero;stroke:none"
         d="m 165.59,60.4609 c 4.894,4.3555 7.344,8.6797 7.344,12.9532 0,1.5586 -0.368,2.8007 -1.086,3.6992 -0.743,0.9375 -1.836,1.3906 -3.262,1.3906 -2.629,0 -5.234,-1.1484 -7.793,-3.4101 -2.531,-2.25 -4.832,-4.8086 -6.879,-7.668 -2.156,-3.3633 -3.859,-6.5664 -5.137,-9.6211 -0.695,-1.6445 -1.425,-3.4922 -2.218,-5.5742 7.804,1.1172 14.136,3.8945 19.031,8.2304 z m -19.86,8.2539 c 8.098,8.4727 16.465,12.7227 25.071,12.7227 3.187,0 5.722,-0.7305 7.609,-2.207 1.875,-1.4453 2.813,-3.6524 2.813,-6.5469 0,-5.8789 -3.434,-10.9102 -10.325,-15.0977 -6.867,-4.1875 -14.109,-6.7461 -21.695,-7.6953 l -3.492,-0.4023 c -0.535,-1.6914 -0.902,-3.0274 -1.109,-4.043 -0.184,-0.9961 -0.305,-2.2617 -0.305,-3.7695 0,-3.6055 1.168,-6.4063 3.516,-8.4141 2.339,-2.0078 5.117,-3.0078 8.343,-3.0078 3.043,0 6.282,1.0234 9.703,3.082 1.973,1.1914 4.786,3.336 8.496,6.4258 l 1.606,-1.4219 c -1.836,-2.3281 -4.469,-4.7265 -7.898,-7.1601 -6.063,-4.4219 -12.176,-6.6133 -18.29,-6.6133 -4.343,0 -8.128,1.5586 -11.394,4.6289 -3.262,3.0664 -4.895,7.4375 -4.895,13.1602 0,9.0586 4.067,17.8476 12.246,26.3593" /><path
         id="path146"
         style="fill:#231f20;fill-opacity:1;fill-rule:nonzero;stroke:none"
         d="m 231.895,71.4023 c -1.192,2.9844 -3.434,4.4571 -6.696,4.4571 -2.824,0 -5.894,-1.3985 -9.207,-4.1992 -3.32,-2.8243 -6.097,-7.4493 -8.34,-13.918 -1.789,-5.0977 -3.457,-10.4453 -5.027,-16.0313 -1.57,-5.6015 -2.352,-8.875 -2.352,-9.8398 0,-1.5547 0.649,-2.6992 1.915,-3.4453 1.265,-0.7422 2.789,-1.1055 4.566,-1.1055 7.109,0 13.379,4.5508 18.797,13.625 4.855,8.1172 7.281,16.1914 7.281,24.1758 0,2.6328 -0.316,4.75 -0.937,6.2812 z M 175.414,2.14063 c 2.473,0 4.313,0.46484 5.566,1.3789 1.227,0.92188 2.165,2.4961 2.727,4.71094 l 16.91,59.73833 c 0.403,1.4882 0.645,2.5742 0.754,3.2265 0.109,0.6602 0.145,1.1953 0.145,1.5508 0,1.3594 -0.496,2.3711 -1.485,3.0391 -0.996,0.6601 -2.461,0.9765 -4.367,0.9765 -0.414,0 -0.805,0 -1.172,-0.039 -0.351,-0.0235 -0.754,-0.0469 -1.144,-0.1446 l -0.133,2.0352 19.918,2.8711 c 0.242,0.0351 0.426,-0.1211 0.558,-0.4844 -0.168,-0.707 -0.328,-1.2305 -0.437,-1.6094 l -3.359,-11.2968 c 2.679,3.5781 5.136,6.3164 7.378,8.1796 4.04,3.4571 8.254,5.1641 12.61,5.1641 4.461,0 7.93,-1.3516 10.472,-4.082 2.532,-2.6992 3.809,-6.8399 3.809,-12.4532 0,-9.582 -4.039,-18.6992 -12.109,-27.4062 -7.977,-8.6055 -16.282,-12.9297 -24.887,-12.9297 -1.68,0 -3.129,0.1953 -4.309,0.5117 -1.171,0.3438 -2.605,0.9024 -4.312,1.7071 L 197.5,23.0078 c -1.082,-4.1523 -1.836,-7.1328 -2.227,-8.9336 -1.085,-4.74998 -1.621,-7.39061 -1.621,-8.0117 0,-1.67969 0.536,-2.76172 1.621,-3.20312 1.059,-0.46094 3.153,-0.76563 6.321,-0.94922 V 0.109375 h -26.18 V 2.14063" /><path
         id="path148"
         style="fill:#231f20;fill-opacity:1;fill-rule:nonzero;stroke:none"
         d="m 292.172,76.8086 c -1.363,1.4023 -3.02,2.1094 -4.953,2.1094 -6.75,0 -12.992,-5.1289 -18.778,-15.3789 -5.074,-9.0078 -7.605,-16.7657 -7.605,-23.2774 0,-3.289 0.691,-5.6601 2.102,-7.1484 1.414,-1.5195 3.144,-2.25 5.238,-2.25 6.148,0 12.09,4.9648 17.808,14.9258 5.496,9.0586 8.246,17.2265 8.246,24.5078 0,2.9687 -0.707,5.125 -2.058,6.5117 z m 1.984,2.3398 c 0.938,-0.9257 1.668,-2.0937 2.227,-3.5703 l 0.316,-0.8398 1.364,4.6055 c 0.183,0.5351 0.343,0.875 0.453,1.0585 0.121,0.1954 0.425,0.3047 0.875,0.3399 l 7.109,0.793 c 0.363,0 0.586,-0.0625 0.66,-0.2071 0.059,-0.1367 0.047,-0.3906 -0.051,-0.7695 -0.168,-0.5352 -0.293,-0.9375 -0.375,-1.2656 -0.086,-0.293 -0.218,-0.7539 -0.402,-1.3164 l -6.078,-21.9375 c -1.34,-4.7969 -2.434,-8.9258 -3.383,-12.3907 -1.496,-6.2734 -2.266,-9.8398 -2.266,-10.7421 0,-0.5704 0.172,-0.9961 0.477,-1.254 0.293,-0.2539 0.668,-0.3867 1.133,-0.3867 0.351,0 0.777,0.1094 1.215,0.3633 0.465,0.2422 1,0.5977 1.644,1.1094 l 1.098,0.8398 c 0.34,0.293 0.73,0.6094 1.18,1.0117 0.414,0.375 0.937,0.8594 1.535,1.4219 l 4.027,3.9063 1.477,-1.2617 c -4.399,-5.4336 -7.891,-9.1211 -10.547,-11.0586 -2.653,-1.9454 -5.188,-2.9219 -7.559,-2.9219 -1.57,0 -2.762,0.5508 -3.605,1.5859 -0.825,1.0821 -1.239,2.3985 -1.239,3.9922 0,1.4727 0.266,3.5664 0.825,6.332 0.547,2.7383 1.086,5.0508 1.605,6.9258 -0.726,-1.2304 -1.969,-3.0078 -3.711,-5.3672 -1.719,-2.3398 -3.847,-4.6172 -6.394,-6.8203 -2.981,-2.6523 -5.84,-4.539 -8.567,-5.625 -2.144,-0.7539 -4.203,-1.1328 -6.148,-1.1328 -3.301,0 -6.309,1.3789 -8.996,4.0938 -2.703,2.7148 -4.043,6.582 -4.043,11.5664 0,8.5937 3.883,17.5429 11.652,26.8789 8.02,9.6953 16.324,14.5273 24.934,14.5273 3.246,0 5.781,-0.8281 7.558,-2.4844" /><path
         id="path150"
         style="fill:#231f20;fill-opacity:1;fill-rule:nonzero;stroke:none"
         d="m 337.363,81.4961 c 0.16,-0.2188 0.235,-0.4961 0.235,-0.7656 -0.051,-0.4375 -0.098,-0.7657 -0.16,-0.961 l -6.247,-23.8632 1.329,2.789 c 2.945,5.7813 6.378,11.0313 10.308,15.8008 3.945,4.7617 7.672,7.1367 11.215,7.1367 1.91,0 3.387,-0.6328 4.445,-1.8906 1.035,-1.2774 1.559,-2.7266 1.559,-4.3672 0,-1.8398 -0.516,-3.3711 -1.559,-4.5664 -1.023,-1.2188 -2.433,-1.8125 -4.261,-1.8125 -1.243,0 -2.192,0.2383 -2.836,0.7383 -0.649,0.5156 -1.157,1.0742 -1.524,1.7422 l -0.73,1.3672 c -0.145,0.2421 -0.352,0.4335 -0.571,0.5703 -0.222,0.1679 -0.5,0.2304 -0.828,0.2304 -1.609,0 -3.922,-2.2422 -6.929,-6.6836 -3.02,-4.4687 -5.735,-9.289 -8.094,-14.5 -1.449,-3.1523 -3.043,-7.332 -4.824,-12.5273 -1.106,-3.2773 -2.578,-7.9141 -4.43,-13.918 h -9.434 l 10.286,37.1094 c 0.574,2.1055 1.035,3.9805 1.386,5.6641 0.332,1.6406 0.512,2.9922 0.512,4.0547 0,1.2148 -0.305,2.1406 -0.91,2.7968 -0.61,0.6328 -1.668,0.9492 -3.18,0.9492 -0.5,0 -1.109,-0.0351 -1.851,-0.1093 -0.731,-0.086 -1.606,-0.1836 -2.629,-0.3047 v 2.0351 l 2.449,0.461 c 3.211,0.6562 6.719,1.3515 10.515,2.0703 3.786,0.7422 5.797,1.0976 6.004,1.0976 0.368,0 0.621,-0.0976 0.754,-0.3437" /><path
         id="path152"
         style="fill:#231f20;fill-opacity:1;fill-rule:nonzero;stroke:none"
         d="m 382.473,96.957 c -1.168,1.3047 -1.766,2.8868 -1.766,4.727 0,1.886 0.598,3.48 1.766,4.785 1.191,1.312 2.629,1.972 4.308,1.972 1.68,0 3.117,-0.66 4.348,-1.972 1.207,-1.305 1.812,-2.899 1.812,-4.785 0,-1.8754 -0.605,-3.4731 -1.812,-4.7465 -1.231,-1.293 -2.668,-1.9531 -4.348,-1.9531 -1.679,0 -3.117,0.6601 -4.308,1.9726 z m 5.793,-15.3398 c 0.222,-0.1328 0.32,-0.3047 0.281,-0.5234 L 376.176,37.2656 c -0.571,-2.3242 -0.863,-3.7226 -0.863,-4.164 0,-0.6328 0.121,-1.168 0.367,-1.6055 0.218,-0.5 0.73,-0.7422 1.543,-0.7422 1.379,0 3.215,1.2149 5.504,3.6289 1.339,1.4219 3.007,3.4922 4.968,6.1563 l 1.606,-1.3516 -0.621,-0.8633 c -3.067,-4.3086 -5.598,-7.414 -7.61,-9.3008 -3.14,-2.957 -6.207,-4.457 -9.175,-4.457 -1.766,0 -3.243,0.7695 -4.383,2.2305 -1.184,1.4609 -1.754,3.2383 -1.754,5.2461 0,1.1797 0.07,2.2148 0.23,3.1054 0.168,0.8868 0.477,2.1914 0.938,3.9063 l 8.754,31.5937 c 0.133,0.4883 0.23,0.9414 0.316,1.3399 0.059,0.414 0.121,0.8164 0.121,1.2422 0,1.4609 -0.535,2.375 -1.621,2.7304 -1.082,0.336 -3.215,0.5196 -6.391,0.5196 v 2.0234 c 3.348,0.4141 5.77,0.7031 7.243,0.9336 1.476,0.2227 2.961,0.4648 4.468,0.6953 1.938,0.3281 3.762,0.6953 5.516,1.0977 1.731,0.4023 2.715,0.5351 2.934,0.3867" /><path
         id="path154"
         style="fill:#231f20;fill-opacity:1;fill-rule:nonzero;stroke:none"
         d="m 396.875,26.0156 10.492,37.8282 c 0.903,3.1875 1.426,5.1367 1.574,5.8203 0.133,0.6562 0.207,1.3984 0.207,2.1914 0,1.1953 -0.332,2.1289 -1,2.8008 -0.668,0.6835 -1.984,1.0195 -3.945,1.0195 -0.488,0 -0.973,-0.0352 -1.449,-0.0977 -0.473,-0.0586 -0.984,-0.1289 -1.559,-0.2031 v 2.0078 c 2.657,0.4141 4.52,0.7305 5.637,0.9258 1.121,0.207 2.34,0.4609 3.641,0.7305 l 10.91,2.3984 c 0.242,-0.1602 0.398,-0.3555 0.476,-0.5625 l -8.05,-26.3555 c 5.015,7.6446 9.214,13.3438 12.601,17.0547 5.918,6.5742 11.203,9.8633 15.903,9.8633 1.8,0 3.359,-0.3555 4.675,-1.0469 2.496,-1.3515 3.75,-3.7617 3.75,-7.2929 0,-0.9883 -0.097,-2.0118 -0.297,-3.0704 -0.214,-1.0703 -0.472,-2.2148 -0.8,-3.4296 l -8.086,-29.3438 c -0.157,-0.6211 -0.328,-1.3633 -0.559,-2.25 -0.195,-0.8789 -0.293,-1.4883 -0.293,-1.8398 0,-0.6211 0.149,-1.1797 0.438,-1.668 0.281,-0.5 0.73,-0.7422 1.367,-0.7422 1.019,0 2.176,0.6211 3.527,1.8633 1.34,1.2422 3.496,3.8789 6.528,7.9492 l 1.765,-1.6328 c -3.265,-4.4922 -5.867,-7.6953 -7.805,-9.5313 -3.3,-3.2031 -6.441,-4.8359 -9.449,-4.8359 -1.363,0 -2.664,0.4766 -3.941,1.3906 -1.254,0.9375 -1.891,2.6172 -1.891,5.0157 0,0.7187 0.051,1.4492 0.137,2.2265 0.098,0.793 0.242,1.4492 0.398,2.0352 L 439.695,65 c 0.387,1.6328 0.68,2.9688 0.813,4.0156 0.148,1.0352 0.219,1.7813 0.219,2.2305 0,0.9844 -0.243,1.8242 -0.715,2.543 -0.465,0.707 -1.293,1.0586 -2.496,1.0586 -3.106,0 -7.028,-2.7383 -11.762,-8.3008 -2.75,-3.3008 -5.574,-7.2188 -8.449,-11.7852 -2.157,-3.5429 -3.86,-7.0156 -5.114,-10.3633 -1.23,-3.3711 -3.191,-9.4921 -5.882,-18.3828 h -9.434" /><path
         id="path156"
         style="fill:#231f20;fill-opacity:1;fill-rule:nonzero;stroke:none"
         d="m 480.465,51.2188 c 1.316,-2.5079 3.668,-3.7735 7.051,-3.7735 3.664,0 6.941,2.3477 9.824,7.0352 2.887,4.7109 4.312,9.8867 4.312,15.5625 0,2.7031 -0.586,4.8047 -1.765,6.3515 -1.196,1.5352 -2.961,2.3008 -5.332,2.3008 -4.567,0 -8.27,-2.4336 -11.043,-7.3008 -2.801,-4.875 -4.199,-9.582 -4.199,-14.1132 0,-2.5196 0.386,-4.5665 1.152,-6.0625 z M 493.59,6.03906 c 3.226,2.34766 4.836,5.10934 4.836,8.36324 0,2.4493 -0.867,4.5196 -2.547,6.2071 -0.887,0.9023 -2.348,1.8633 -4.371,2.8867 -1.68,0.8164 -4.528,2.0078 -8.535,3.5312 -4.016,1.5469 -6.328,2.3125 -6.938,2.3125 -1.07,0 -3.129,-1.4218 -6.183,-4.2851 -3.082,-2.8359 -4.618,-6.0508 -4.618,-9.6563 0,-5.46481 2.364,-9.21481 7.086,-11.2734 2.473,-1.07031 5.516,-1.60547 9.11,-1.60547 4.894,0 8.933,1.19531 12.16,3.51953 z M 461.984,22.582 c 2.364,2.7539 6.063,5.5039 11.164,8.2188 -1.019,0.6719 -1.863,1.3515 -2.519,2.0586 -0.633,0.7187 -0.973,1.6523 -0.973,2.8594 0,1.6562 1.168,3.5937 3.492,5.7578 1.329,1.2187 3.485,2.8281 6.454,4.8359 -2.618,0.9844 -4.879,2.375 -6.77,4.1641 -2.289,2.4218 -3.434,5.5625 -3.434,9.3984 0,6.1836 2.415,11.3203 7.235,15.4258 4.82,4.0898 10.789,6.1367 17.922,6.1367 3.711,0 6.867,-0.5859 9.445,-1.7539 2.555,-1.1563 4.094,-2.1211 4.539,-2.8828 h 8.281 v -4.9219 h -6.281 c 0.242,-0.8984 0.438,-1.7187 0.547,-2.457 0.133,-0.7227 0.184,-1.7774 0.184,-3.1289 0,-6.6367 -2.555,-11.8594 -7.672,-15.6719 -5.125,-3.7969 -10.641,-5.7109 -16.571,-5.7109 -0.605,0 -1.179,0.0507 -1.714,0.0976 -0.536,0.0625 -1.18,0.1602 -1.961,0.3281 -0.61,0 -1.438,-0.582 -2.508,-1.7656 -1.11,-1.2031 -1.656,-2.25 -1.656,-3.1992 0,-1.3789 4.496,-3.7617 13.492,-7.0977 8.961,-3.3984 13.441,-8.3515 13.441,-14.8632 0,-4.9063 -2.266,-9.19536 -6.75,-12.87114 C 494.855,1.85156 488.063,0 478.98,0 c -6.316,0 -11.308,1.35156 -14.988,4.04297 -3.687,2.6875 -5.539,5.98833 -5.539,9.83593 0,3.0547 1.184,5.9649 3.531,8.7031" /><path
         id="path158"
         style="fill:#231f20;fill-opacity:1;fill-rule:nonzero;stroke:none"
         d="m 598.27,71.4023 c -1.192,2.9844 -3.422,4.4571 -6.707,4.4571 -2.829,0 -5.879,-1.3985 -9.204,-4.1992 -3.312,-2.8243 -6.078,-7.4493 -8.328,-13.918 -1.793,-5.0977 -3.472,-10.4453 -5.043,-16.0313 -1.558,-5.6015 -2.347,-8.875 -2.347,-9.8398 0,-1.5547 0.632,-2.6992 1.898,-3.4453 1.289,-0.7422 2.801,-1.1055 4.578,-1.1055 7.121,0 13.379,4.5508 18.797,13.625 4.859,8.1172 7.281,16.1914 7.281,24.1758 0,2.6328 -0.316,4.75 -0.925,6.2812 z M 541.805,2.14063 c 2.457,0 4.308,0.46484 5.527,1.3789 1.277,0.92188 2.164,2.4961 2.75,4.71094 l 16.875,59.73833 c 0.414,1.4882 0.68,2.5742 0.789,3.2265 0.09,0.6602 0.149,1.1953 0.149,1.5508 0,1.3594 -0.5,2.3711 -1.5,3.0391 -1.008,0.6601 -2.457,0.9765 -4.379,0.9765 -0.395,0 -0.77,0 -1.145,-0.039 -0.367,-0.0235 -0.758,-0.0469 -1.172,-0.1446 l -0.121,2.0352 19.918,2.8711 c 0.258,0.0351 0.438,-0.1211 0.563,-0.4844 -0.172,-0.707 -0.332,-1.2305 -0.442,-1.6094 l -3.336,-11.2968 c 2.668,3.5781 5.114,6.3164 7.356,8.1796 4.051,3.4571 8.254,5.1641 12.613,5.1641 4.441,0 7.949,-1.3516 10.469,-4.082 2.535,-2.6992 3.801,-6.8399 3.801,-12.4532 0,-9.582 -4.02,-18.6992 -12.09,-27.4062 -7.989,-8.6055 -16.278,-12.9297 -24.875,-12.9297 -1.703,0 -3.153,0.1953 -4.321,0.5117 -1.183,0.3438 -2.621,0.9024 -4.3,1.7071 l -1.055,-3.7774 c -1.098,-4.1523 -1.856,-7.1328 -2.242,-8.9336 -1.074,-4.74998 -1.594,-7.39061 -1.594,-8.0117 0,-1.67969 0.52,-2.76172 1.594,-3.20312 1.058,-0.46094 3.164,-0.76563 6.304,-0.94922 V 0.109375 H 541.805 V 2.14063" /><path
         id="path160"
         style="fill:#231f20;fill-opacity:1;fill-rule:nonzero;stroke:none"
         d="m 650.523,60.4609 c 4.872,4.3555 7.329,8.6797 7.329,12.9532 0,1.5586 -0.387,2.8007 -1.118,3.6992 -0.707,0.9375 -1.777,1.3906 -3.214,1.3906 -2.676,0 -5.262,-1.1484 -7.817,-3.4101 -2.535,-2.25 -4.82,-4.8086 -6.89,-7.668 -2.141,-3.3633 -3.848,-6.5664 -5.114,-9.6211 -0.707,-1.6445 -1.437,-3.4922 -2.215,-5.5742 7.789,1.1172 14.145,3.8945 19.039,8.2304 z m -19.867,8.2539 c 8.11,8.4727 16.457,12.7227 25.055,12.7227 3.215,0 5.723,-0.7305 7.598,-2.207 1.898,-1.4453 2.824,-3.6524 2.824,-6.5469 0,-5.8789 -3.434,-10.9102 -10.324,-15.0977 -6.868,-4.1875 -14.102,-6.7461 -21.696,-7.6953 l -3.484,-0.4023 c -0.535,-1.6914 -0.899,-3.0274 -1.094,-4.043 -0.219,-0.9961 -0.316,-2.2617 -0.316,-3.7695 0,-3.6055 1.191,-6.4063 3.508,-8.4141 2.336,-2.0078 5.113,-3.0078 8.328,-3.0078 3.039,0 6.304,1.0234 9.711,3.082 1.949,1.1914 4.797,3.336 8.5,6.4258 l 1.609,-1.4219 c -1.828,-2.3281 -4.457,-4.7265 -7.891,-7.1601 -6.089,-4.4219 -12.175,-6.6133 -18.312,-6.6133 -4.309,0 -8.109,1.5586 -11.371,4.6289 -3.285,3.0664 -4.918,7.4375 -4.918,13.1602 0,9.0586 4.113,17.8476 12.273,26.3593" /><path
         id="path162"
         style="fill:#231f20;fill-opacity:1;fill-rule:nonzero;stroke:none"
         d="m 686.609,30.668 c 1.707,-2.2422 4.164,-3.3477 7.477,-3.3477 6.644,0 12.562,5.0391 17.703,15.1328 4.383,8.6446 6.574,16.5938 6.574,23.8594 0,3.082 -0.39,5.5664 -1.121,7.4414 -1.437,3.5664 -4.043,5.3555 -7.863,5.3555 -6.234,0 -12.078,-4.6992 -17.582,-14.086 -5.164,-8.7539 -7.742,-17.4101 -7.742,-25.8945 0,-3.3945 0.851,-6.2226 2.554,-8.4609 z m 38.008,45.4726 c 2.852,-3.664 4.238,-8 4.238,-12.9765 0,-8.6836 -3.796,-17.2188 -11.441,-25.5547 -7.914,-8.6836 -16.316,-13.043 -25.277,-13.043 -5.625,0 -10.106,1.6563 -13.516,4.9336 -3.406,3.2734 -5.113,7.875 -5.113,13.8281 0,8.961 3.828,17.5313 11.422,25.7266 7.742,8.3867 16.144,12.5781 25.175,12.5781 6.868,0 11.715,-1.8281 14.512,-5.4922" /><path
         id="path164"
         style="fill:#231f20;fill-opacity:1;fill-rule:nonzero;stroke:none"
         d="m 779.602,71.4023 c -1.192,2.9844 -3.434,4.4571 -6.696,4.4571 -2.824,0 -5.894,-1.3985 -9.207,-4.1992 -3.308,-2.8243 -6.109,-7.4493 -8.347,-13.918 -1.782,-5.0977 -3.461,-10.4453 -5.02,-16.0313 -1.559,-5.6015 -2.359,-8.875 -2.359,-9.8398 0,-1.5547 0.656,-2.6992 1.949,-3.4453 1.266,-0.7422 2.773,-1.1055 4.551,-1.1055 7.086,0 13.367,4.5508 18.797,13.625 4.843,8.1172 7.281,16.1914 7.281,24.1758 0,2.6328 -0.34,4.75 -0.949,6.2812 z M 723.137,2.14063 c 2.457,0 4.308,0.46484 5.547,1.3789 1.242,0.92188 2.168,2.4961 2.754,4.71094 l 16.898,59.73833 c 0.414,1.4882 0.656,2.5742 0.754,3.2265 0.098,0.6602 0.144,1.1953 0.144,1.5508 0,1.3594 -0.484,2.3711 -1.507,3.0391 -0.973,0.6601 -2.457,0.9765 -4.36,0.9765 -0.414,0 -0.777,0 -1.14,-0.039 -0.391,-0.0235 -0.758,-0.0469 -1.172,-0.1446 l -0.121,2.0352 19.918,2.8711 c 0.242,0.0351 0.437,-0.1211 0.558,-0.4844 -0.191,-0.707 -0.363,-1.2305 -0.461,-1.6094 L 757.59,68.0938 c 2.703,3.5781 5.137,6.3164 7.379,8.1796 4.039,3.4571 8.254,5.1641 12.633,5.1641 4.41,0 7.941,-1.3516 10.472,-4.082 2.531,-2.6992 3.801,-6.8399 3.801,-12.4532 0,-9.582 -4.043,-18.6992 -12.129,-27.4062 -7.961,-8.6055 -16.238,-12.9297 -24.859,-12.9297 -1.707,0 -3.117,0.1953 -4.309,0.5117 -1.172,0.3438 -2.605,0.9024 -4.336,1.7071 l -1.023,-3.7774 c -1.094,-4.1523 -1.824,-7.1328 -2.266,-8.9336 -1.019,-4.74998 -1.605,-7.39061 -1.605,-8.0117 0,-1.67969 0.586,-2.76172 1.605,-3.20312 1.098,-0.46094 3.192,-0.76563 6.36,-0.94922 V 0.109375 H 723.137 V 2.14063" /><path
         id="path166"
         style="fill:#231f20;fill-opacity:1;fill-rule:nonzero;stroke:none"
         d="m 819.656,100.465 c 0.172,0.539 0.293,1.058 0.317,1.594 0.023,0.523 0.074,0.964 0.074,1.293 0,1.398 -0.586,2.25 -1.707,2.566 -1.094,0.305 -3.336,0.453 -6.695,0.402 v 2.008 c 1.851,0.27 3.968,0.551 6.355,0.856 2.41,0.328 3.969,0.558 4.723,0.679 2.316,0.414 5.066,1.012 8.355,1.817 0.289,0 0.559,-0.207 0.875,-0.633 l -20.48,-73.7814 c -0.461,-1.7656 -0.731,-2.8242 -0.801,-3.1875 -0.074,-0.3672 -0.121,-0.7422 -0.121,-1.0976 0,-0.7774 0.121,-1.4375 0.437,-2.0196 0.266,-0.5351 0.801,-0.8046 1.61,-0.8046 1.461,0 3.355,1.3046 5.765,3.9218 2.34,2.625 4.36,5.1367 5.992,7.6328 l 1.68,-1.1718 c -3.508,-5.2188 -6.258,-8.836 -8.207,-10.8321 -3.383,-3.4218 -6.793,-5.1406 -10.223,-5.1406 -1.488,0 -2.781,0.3906 -3.921,1.1328 -1.754,1.0977 -2.657,2.9844 -2.657,5.6485 0,1.0507 0.172,2.4257 0.489,4.1406 0.218,1.0234 0.535,2.2031 0.902,3.5547 l 17.238,61.422" /><path
         id="path168"
         style="fill:#231f20;fill-opacity:1;fill-rule:nonzero;stroke:none"
         d="m 866.746,60.4609 c 4.895,4.3555 7.332,8.6797 7.332,12.9532 0,1.5586 -0.367,2.8007 -1.121,3.6992 -0.707,0.9375 -1.777,1.3906 -3.191,1.3906 -2.676,0 -5.282,-1.1484 -7.817,-3.4101 -2.582,-2.25 -4.844,-4.8086 -6.886,-7.668 -2.145,-3.3633 -3.875,-6.5664 -5.118,-9.6211 -0.73,-1.6445 -1.461,-3.4922 -2.215,-5.5742 7.77,1.1172 14.149,3.8945 19.016,8.2304 z m -19.867,8.2539 c 8.133,8.4727 16.461,12.7227 25.105,12.7227 3.164,0 5.696,-0.7305 7.571,-2.207 1.875,-1.4453 2.828,-3.6524 2.828,-6.5469 0,-5.8789 -3.438,-10.9102 -10.301,-15.0977 -6.894,-4.1875 -14.125,-6.7461 -21.723,-7.6953 l -3.504,-0.4023 c -0.511,-1.6914 -0.878,-3.0274 -1.097,-4.043 -0.195,-0.9961 -0.293,-2.2617 -0.293,-3.7695 0,-3.6055 1.172,-6.4063 3.508,-8.4141 2.34,-2.0078 5.113,-3.0078 8.328,-3.0078 3.043,0 6.308,1.0234 9.715,3.082 1.949,1.1914 4.773,3.336 8.5,6.4258 l 1.629,-1.4219 c -1.825,-2.3281 -4.481,-4.7265 -7.915,-7.1601 -6.085,-4.4219 -12.199,-6.6133 -18.308,-6.6133 -4.313,0 -8.133,1.5586 -11.399,4.6289 -3.261,3.0664 -4.867,7.4375 -4.867,13.1602 0,9.0586 4.067,17.8476 12.223,26.3593" /><path
         id="path170"
         style="fill:#231f20;fill-opacity:1;fill-rule:nonzero;stroke:none"
         d="m 922.582,31.0703 c 0.047,0.4492 0.145,0.8633 0.266,1.3281 l 11.91,42.875 h -9.328 c 0,1.0977 0.05,1.793 0.246,2.0821 0.168,0.3047 0.586,0.5742 1.238,0.8672 4.164,1.7773 7.43,3.4804 9.719,5.125 2.289,1.6445 5.43,4.7968 9.398,9.5195 l 0.973,1.1719 c 0.125,0.1562 0.269,0.289 0.461,0.4023 0.148,0.0938 0.367,0.1445 0.562,0.1445 0.414,-0.0859 0.68,-0.1601 0.852,-0.2578 0.125,-0.2812 0.195,-0.5351 0.219,-0.7539 0,-0.2187 0,-0.4648 -0.047,-0.6914 l -3.629,-13.3594 h 10.152 l -0.754,-4.25 H 944.18 L 932.734,33.9922 c -0.218,-0.7422 -0.144,-1.4375 0.172,-2.1211 0.34,-0.6797 0.875,-1.0078 1.68,-1.0078 1.047,0 2.559,1.0469 4.48,3.1875 1.098,1.1601 2.973,3.4219 5.602,6.832 l 1.582,-0.9258 -0.828,-1.2812 c -3.555,-5.2695 -6.649,-8.9336 -9.301,-11.0156 -2.703,-2.0469 -5.234,-3.0938 -7.621,-3.0938 -2.098,0 -3.629,0.5625 -4.527,1.668 -0.953,1.1094 -1.442,2.3398 -1.442,3.7148 0,0.3281 0,0.7188 0.051,1.1211" /><path
         id="path172"
         style="fill:#231f20;fill-opacity:1;fill-rule:nonzero;stroke:none"
         d="m 969.164,30.668 c 1.656,-2.2422 4.16,-3.3477 7.426,-3.3477 6.644,0 12.59,5.0391 17.75,15.1328 4.359,8.6446 6.55,16.5938 6.55,23.8594 0,3.082 -0.39,5.5664 -1.093,7.4414 -1.461,3.5664 -4.07,5.3555 -7.891,5.3555 -6.234,0 -12.129,-4.6992 -17.582,-14.086 -5.16,-8.7539 -7.746,-17.4101 -7.746,-25.8945 0,-3.3945 0.879,-6.2226 2.586,-8.4609 z m 38.006,45.4726 c 2.83,-3.664 4.21,-8 4.21,-12.9765 0,-8.6836 -3.79,-17.2188 -11.442,-25.5547 -7.887,-8.6836 -16.29,-13.043 -25.25,-13.043 -5.645,0 -10.153,1.6563 -13.536,4.9336 -3.41,3.2734 -5.089,7.875 -5.089,13.8281 0,8.961 3.796,17.5313 11.421,25.7266 7.743,8.3867 16.141,12.5781 25.176,12.5781 6.867,0 11.69,-1.8281 14.51,-5.4922" /><path
         id="path174"
         style="fill:#231f20;fill-opacity:1;fill-rule:nonzero;stroke:none"
         d="m 1070.77,100.465 c 0.17,0.539 0.27,1.058 0.32,1.594 0.05,0.523 0.05,0.964 0.05,1.293 0,1.398 -0.56,2.25 -1.68,2.566 -1.1,0.305 -3.34,0.453 -6.67,0.402 v 2.008 c 1.82,0.27 3.97,0.551 6.35,0.856 2.41,0.328 3.97,0.558 4.7,0.679 2.32,0.414 5.09,1.012 8.38,1.817 0.27,0 0.58,-0.207 0.82,-0.633 l -20.45,-73.7814 c -0.44,-1.7656 -0.7,-2.8242 -0.8,-3.1875 -0.07,-0.3672 -0.12,-0.7422 -0.12,-1.0976 0,-0.7774 0.17,-1.4375 0.43,-2.0196 0.27,-0.5351 0.81,-0.8046 1.61,-0.8046 1.46,0 3.41,1.3046 5.77,3.9218 2.36,2.625 4.41,5.1367 6.04,7.6328 l 1.63,-1.1718 c -3.5,-5.2188 -6.21,-8.836 -8.2,-10.8321 -3.39,-3.4218 -6.8,-5.1406 -10.23,-5.1406 -1.48,0 -2.78,0.3906 -3.92,1.1328 -1.75,1.0977 -2.63,2.9844 -2.63,5.6485 0,1.0507 0.17,2.4257 0.49,4.1406 0.22,1.0234 0.51,2.2031 0.87,3.5547 l 17.24,61.422" /><path
         id="path176"
         style="fill:#231f20;fill-opacity:1;fill-rule:nonzero;stroke:none"
         d="m 1117.89,60.4609 c 4.89,4.3555 7.35,8.6797 7.35,12.9532 0,1.5586 -0.36,2.8007 -1.12,3.6992 -0.73,0.9375 -1.85,1.3906 -3.26,1.3906 -2.65,0 -5.23,-1.1484 -7.79,-3.4101 -2.53,-2.25 -4.82,-4.8086 -6.87,-7.668 -2.17,-3.3633 -3.87,-6.5664 -5.14,-9.6211 -0.68,-1.6445 -1.43,-3.4922 -2.19,-5.5742 7.79,1.1172 14.1,3.8945 19.02,8.2304 z m -19.87,8.2539 c 8.08,8.4727 16.46,12.7227 25.08,12.7227 3.19,0 5.7,-0.7305 7.57,-2.207 1.9,-1.4453 2.83,-3.6524 2.83,-6.5469 0,-5.8789 -3.44,-10.9102 -10.3,-15.0977 -6.87,-4.1875 -14.1,-6.7461 -21.7,-7.6953 l -3.48,-0.4023 c -0.54,-1.6914 -0.93,-3.0274 -1.12,-4.043 -0.22,-0.9961 -0.32,-2.2617 -0.32,-3.7695 0,-3.6055 1.17,-6.4063 3.51,-8.4141 2.34,-2.0078 5.11,-3.0078 8.35,-3.0078 3.05,0 6.28,1.0234 9.72,3.082 1.95,1.1914 4.77,3.336 8.47,6.4258 l 1.63,-1.4219 c -1.85,-2.3281 -4.48,-4.7265 -7.91,-7.1601 -6.06,-4.4219 -12.15,-6.6133 -18.29,-6.6133 -4.36,0 -8.13,1.5586 -11.37,4.6289 -3.26,3.0664 -4.92,7.4375 -4.92,13.1602 0,9.0586 4.09,17.8476 12.25,26.3593" /><path
         id="path178"
         style="fill:#231f20;fill-opacity:1;fill-rule:nonzero;stroke:none"
         d="m 1181.64,76.8086 c -1.34,1.4023 -3,2.1094 -4.92,2.1094 -6.75,0 -13,-5.1289 -18.78,-15.3789 -5.09,-9.0078 -7.62,-16.7657 -7.62,-23.2774 0,-3.289 0.68,-5.6601 2.1,-7.1484 1.41,-1.5195 3.14,-2.25 5.23,-2.25 6.16,0 12.1,4.9648 17.83,14.9258 5.47,9.0586 8.23,17.2265 8.23,24.5078 0,2.9687 -0.69,5.125 -2.07,6.5117 z m 1.99,2.3398 c 0.95,-0.9257 1.71,-2.0937 2.24,-3.5703 l 0.3,-0.8398 1.38,4.6055 c 0.17,0.5351 0.34,0.875 0.47,1.0585 0.12,0.1954 0.39,0.3047 0.87,0.3399 l 7.09,0.793 c 0.36,0 0.61,-0.0625 0.66,-0.2071 0.05,-0.1367 0.05,-0.3906 -0.03,-0.7695 -0.17,-0.5352 -0.32,-0.9375 -0.41,-1.2656 -0.08,-0.293 -0.2,-0.7539 -0.37,-1.3164 l -6.09,-21.9375 c -1.33,-4.7969 -2.45,-8.9258 -3.35,-12.3907 -1.54,-6.2734 -2.29,-9.8398 -2.29,-10.7421 0,-0.5704 0.14,-0.9961 0.48,-1.254 0.27,-0.2539 0.66,-0.3867 1.12,-0.3867 0.34,0 0.76,0.1094 1.22,0.3633 0.46,0.2422 1,0.5977 1.66,1.1094 l 1.09,0.8398 c 0.34,0.293 0.73,0.6094 1.17,1.0117 0.44,0.375 0.93,0.8594 1.56,1.4219 l 4.02,3.9063 1.43,-1.2617 c -4.38,-5.4336 -7.86,-9.1211 -10.51,-11.0586 -2.66,-1.9454 -5.19,-2.9219 -7.58,-2.9219 -1.58,0 -2.75,0.5508 -3.58,1.5859 -0.85,1.0821 -1.26,2.3985 -1.26,3.9922 0,1.4727 0.26,3.5664 0.82,6.332 0.56,2.7383 1.1,5.0508 1.63,6.9258 -0.73,-1.2304 -1.99,-3.0078 -3.72,-5.3672 -1.73,-2.3398 -3.85,-4.6172 -6.4,-6.8203 -2.98,-2.6523 -5.82,-4.539 -8.58,-5.625 -2.11,-0.7539 -4.18,-1.1328 -6.13,-1.1328 -3.31,0 -6.31,1.3789 -8.99,4.0938 -2.7,2.7148 -4.06,6.582 -4.06,11.5664 0,8.5937 3.89,17.5429 11.66,26.8789 8.01,9.6953 16.32,14.5273 24.94,14.5273 3.23,0 5.79,-0.8281 7.54,-2.4844" /><path
         id="path180"
         style="fill:#231f20;fill-opacity:1;fill-rule:nonzero;stroke:none"
         d="m 1214.83,33.7617 c 1.16,-1.8633 3.11,-2.8008 5.86,-2.8008 5.87,0 11.5,4.711 16.95,14.1094 5.19,8.8281 7.77,17.1914 7.77,25.0899 0,2.4961 -0.39,4.5586 -1.22,6.1875 -0.83,1.6562 -2.51,2.457 -5.01,2.457 -6.29,0 -12.35,-5.0391 -18.22,-15.0938 -5.23,-9 -7.84,-16.8164 -7.84,-23.4257 0,-2.4961 0.56,-4.6758 1.71,-6.5235 z m 30.63,45.5547 c 0.78,-0.8867 1.41,-2.3867 1.87,-4.5625 l 7.14,24.9805 c 0.21,0.7066 0.34,1.3166 0.41,1.8746 0.05,0.559 0.07,1.047 0.07,1.438 0,1.594 -0.29,2.594 -0.87,3.019 -0.59,0.403 -1.46,0.61 -2.56,0.61 -0.71,0 -1.36,-0.028 -1.95,-0.063 -0.58,-0.023 -1.39,-0.109 -2.39,-0.195 v 2.023 c 4.66,0.622 11.09,1.704 19.34,3.239 l 0.53,-0.633 -0.14,-0.649 -12.08,-43.9878 -8.25,-29.1954 c -0.17,-0.6679 -0.3,-1.2617 -0.39,-1.8359 -0.13,-0.5586 -0.17,-1.0703 -0.17,-1.5351 0,-1.1055 0.26,-1.836 0.83,-2.1915 0.55,-0.3281 1.04,-0.4726 1.46,-0.4726 1.21,0 2.89,1.0351 5.09,3.1523 1.31,1.2657 3.06,3.2774 5.3,5.9532 l 1.39,-1.3516 -0.83,-1.2891 c -1.53,-2.2265 -3.48,-4.5312 -5.89,-6.8672 -4.21,-4.1171 -8.01,-6.2109 -11.37,-6.2109 -1.12,0 -2.09,0.2578 -3.02,0.7578 -1.68,0.961 -2.53,2.7266 -2.53,5.2461 0,0.8516 0.12,2.2031 0.36,4.0781 0.27,1.8633 0.64,3.918 1.15,6.1875 -3.12,-4.7265 -6.53,-8.6093 -10.25,-11.6171 -3.73,-3.0196 -7.8,-4.543 -12.18,-4.543 -3.55,0 -6.67,1.2695 -9.35,3.8125 -2.65,2.543 -3.99,6.418 -3.99,11.6992 0,8.875 4.11,18.043 12.37,27.418 8.2,9.3633 16.19,14.0273 23.98,14.0273 3.26,0 5.55,-0.7578 6.92,-2.3164" /><path
         id="path182"
         style="fill:#231f20;fill-opacity:1;fill-rule:nonzero;stroke:none"
         d="m 1330.63,60.4609 c 4.9,4.3555 7.33,8.6797 7.33,12.9532 0,1.5586 -0.36,2.8007 -1.1,3.6992 -0.73,0.9375 -1.82,1.3906 -3.26,1.3906 -2.63,0 -5.23,-1.1484 -7.77,-3.4101 -2.55,-2.25 -4.84,-4.8086 -6.89,-7.668 -2.14,-3.3633 -3.87,-6.5664 -5.13,-9.6211 -0.69,-1.6445 -1.42,-3.4922 -2.22,-5.5742 7.79,1.1172 14.12,3.8945 19.04,8.2304 z m -19.84,8.2539 c 8.06,8.4727 16.43,12.7227 25.05,12.7227 3.19,0 5.7,-0.7305 7.6,-2.207 1.87,-1.4453 2.82,-3.6524 2.82,-6.5469 0,-5.8789 -3.43,-10.9102 -10.3,-15.0977 -6.91,-4.1875 -14.09,-6.7461 -21.74,-7.6953 l -3.48,-0.4023 c -0.54,-1.6914 -0.9,-3.0274 -1.1,-4.043 -0.19,-0.9961 -0.32,-2.2617 -0.32,-3.7695 0,-3.6055 1.17,-6.4063 3.54,-8.4141 2.33,-2.0078 5.11,-3.0078 8.32,-3.0078 3.07,0 6.26,1.0234 9.72,3.082 1.92,1.1914 4.77,3.336 8.5,6.4258 l 1.58,-1.4219 c -1.83,-2.3281 -4.43,-4.7265 -7.89,-7.1601 -6.06,-4.4219 -12.17,-6.6133 -18.28,-6.6133 -4.34,0 -8.11,1.5586 -11.4,4.6289 -3.26,3.0664 -4.92,7.4375 -4.92,13.1602 0,9.0586 4.09,17.8476 12.3,26.3593" /><path
         id="path184"
         style="fill:#231f20;fill-opacity:1;fill-rule:nonzero;stroke:none"
         d="m 1348.24,33.4805 c 0.99,0.6797 1.99,1.0234 3.04,1.0234 0.46,0 0.95,-0.0625 1.44,-0.2187 0.51,-0.1602 1.02,-0.3789 1.6,-0.7071 l 2.17,-1.1562 c 0.24,-0.1602 0.56,-0.2813 0.81,-0.3281 0.29,-0.0625 0.55,-0.086 0.9,-0.086 1.02,0 1.8,0.2539 2.36,0.7539 0.53,0.5117 1.94,2.3125 4.26,5.3438 1.51,2.0195 4.94,6.914 10.32,14.6718 0,0.293 -0.49,2.4961 -1.43,6.5977 -0.93,4.1055 -1.81,7.5859 -2.59,10.4453 -0.8,2.9102 -1.48,4.8203 -2.09,5.7461 -0.61,0.9141 -1.75,1.3906 -3.43,1.3906 -0.59,0 -1.71,-0.2343 -3.39,-0.6328 -1.07,-0.2344 -2.21,-0.5234 -3.45,-0.8437 l -0.56,2.0117 6.84,2.3242 c 1.75,0.6094 3.38,1.1211 4.89,1.4727 1.49,0.3672 2.75,0.5507 3.82,0.5507 1.73,0 3.02,-0.5117 3.88,-1.5468 1.31,-1.6328 2.41,-4.8946 3.33,-9.7383 l 1.27,-7.0391 c 3.7,5.6367 6.57,9.6055 8.62,11.918 1.85,2.0937 3.58,3.6289 5.21,4.6758 1.66,1.0234 3.21,1.5234 4.67,1.5234 1.39,0 2.54,-0.1953 3.39,-0.6211 1.56,-0.7187 2.34,-2.1094 2.34,-4.1758 0,-1.3554 -0.39,-2.4492 -1.2,-3.2304 -0.75,-0.7891 -1.75,-1.168 -2.99,-1.168 -0.44,0 -0.88,0.0508 -1.27,0.1484 -0.41,0.1094 -0.85,0.2579 -1.31,0.4649 l -1.61,0.6797 c -0.44,0.207 -0.88,0.375 -1.29,0.5117 -0.39,0.1445 -0.71,0.2187 -0.93,0.2187 -1.85,0 -4.38,-2.375 -7.67,-7.1601 -3.28,-4.7578 -4.91,-7.5235 -4.91,-8.2774 0,-0.5976 0.39,-2.5937 1.14,-5.9648 0.78,-3.375 1.58,-6.9531 2.51,-10.7031 0.8,-3.5547 1.48,-6.0157 2.07,-7.3789 0.97,-2.2032 2.02,-3.2969 3.24,-3.2969 1.09,0 2.21,0.6055 3.38,1.8359 1.15,1.2422 2.87,3.4571 5.16,6.6719 l 1.73,-1.0352 c -1.78,-3.1757 -3.58,-5.914 -5.48,-8.1914 -3.58,-4.2382 -6.96,-6.3945 -10.22,-6.3945 -2.05,0 -3.68,1 -4.85,2.9609 -0.68,1.1563 -1.39,3.043 -2.04,5.6368 l -3.8,15.1328 -12.59,-16.4844 c -2.46,-2.8477 -4.34,-4.7734 -5.7,-5.7461 -1.32,-0.9883 -2.95,-1.5 -4.89,-1.5 -2.66,0 -4.41,0.8281 -5.39,2.4609 -0.51,0.8633 -0.77,1.8868 -0.77,3.0547 0,1.6094 0.46,2.7266 1.46,3.3985" /><path
         id="path186"
         style="fill:#231f20;fill-opacity:1;fill-rule:nonzero;stroke:none"
         d="m 1410.81,31.0703 c 0.05,0.4492 0.13,0.8633 0.25,1.3281 l 11.9,42.875 h -9.32 c 0,1.0977 0.1,1.793 0.24,2.0821 0.2,0.3047 0.59,0.5742 1.24,0.8672 4.19,1.7773 7.43,3.4804 9.72,5.125 2.31,1.6445 5.43,4.7968 9.4,9.5195 l 0.97,1.1719 c 0.12,0.1562 0.3,0.289 0.47,0.4023 0.17,0.0938 0.38,0.1445 0.58,0.1445 0.42,-0.0859 0.68,-0.1601 0.83,-0.2578 0.14,-0.2812 0.22,-0.5351 0.24,-0.7539 0.03,-0.2187 0,-0.4648 -0.05,-0.6914 l -3.65,-13.3594 h 10.13 l -0.71,-4.25 h -10.64 l -11.44,-41.2812 c -0.22,-0.7422 -0.15,-1.4375 0.17,-2.1211 0.34,-0.6797 0.9,-1.0078 1.65,-1.0078 1.08,0 2.58,1.0469 4.49,3.1875 1.11,1.1601 2.99,3.4219 5.62,6.832 l 1.58,-0.9258 -0.85,-1.2812 c -3.53,-5.2695 -6.6,-8.9336 -9.3,-11.0156 -2.68,-2.0469 -5.21,-3.0938 -7.62,-3.0938 -2.07,0 -3.61,0.5625 -4.56,1.668 -0.9,1.1094 -1.38,2.3398 -1.38,3.7148 0,0.3281 0.02,0.7188 0.04,1.1211" /><path
         id="path188"
         style="fill:#231f20;fill-opacity:1;fill-rule:nonzero;stroke:none"
         d="m 1472.68,81.4961 c 0.14,-0.2188 0.22,-0.4961 0.22,-0.7656 -0.08,-0.4375 -0.13,-0.7657 -0.17,-0.961 l -6.26,-23.8632 1.36,2.789 c 2.93,5.7813 6.38,11.0313 10.3,15.8008 3.95,4.7617 7.67,7.1367 11.23,7.1367 1.9,0 3.38,-0.6328 4.4,-1.8906 1.05,-1.2774 1.59,-2.7266 1.59,-4.3672 0,-1.8398 -0.54,-3.3711 -1.54,-4.5664 -1.02,-1.2188 -2.45,-1.8125 -4.28,-1.8125 -1.24,0 -2.22,0.2383 -2.85,0.7383 -0.66,0.5156 -1.14,1.0742 -1.51,1.7422 l -0.73,1.3672 c -0.15,0.2421 -0.36,0.4335 -0.56,0.5703 -0.22,0.1679 -0.51,0.2304 -0.85,0.2304 -1.59,0 -3.9,-2.2422 -6.92,-6.6836 -3.02,-4.4687 -5.72,-9.289 -8.11,-14.5 -1.43,-3.1523 -3.02,-7.332 -4.82,-12.5273 -1.09,-3.2773 -2.56,-7.9141 -4.41,-13.918 h -9.44 l 10.27,37.1094 c 0.59,2.1055 1.05,3.9805 1.39,5.6641 0.34,1.6406 0.51,2.9922 0.51,4.0547 0,1.2148 -0.29,2.1406 -0.9,2.7968 -0.61,0.6328 -1.68,0.9492 -3.19,0.9492 -0.49,0 -1.09,-0.0351 -1.82,-0.1093 -0.73,-0.086 -1.64,-0.1836 -2.66,-0.3047 v 2.0351 l 2.48,0.461 c 3.2,0.6562 6.68,1.3515 10.5,2.0703 3.8,0.7422 5.77,1.0976 5.99,1.0976 0.36,0 0.63,-0.0976 0.78,-0.3437" /><path
         id="path190"
         style="fill:#231f20;fill-opacity:1;fill-rule:nonzero;stroke:none"
         d="m 1533.92,76.8086 c -1.38,1.4023 -3.01,2.1094 -4.96,2.1094 -6.72,0 -13,-5.1289 -18.77,-15.3789 -5.07,-9.0078 -7.63,-16.7657 -7.63,-23.2774 0,-3.289 0.73,-5.6601 2.12,-7.1484 1.44,-1.5195 3.17,-2.25 5.24,-2.25 6.16,0 12.1,4.9648 17.82,14.9258 5.45,9.0586 8.21,17.2265 8.21,24.5078 0,2.9687 -0.68,5.125 -2.03,6.5117 z m 1.98,2.3398 c 0.95,-0.9257 1.7,-2.0937 2.21,-3.5703 l 0.35,-0.8398 1.36,4.6055 c 0.19,0.5351 0.32,0.875 0.44,1.0585 0.12,0.1954 0.43,0.3047 0.9,0.3399 l 7.08,0.793 c 0.39,0 0.59,-0.0625 0.66,-0.2071 0.05,-0.1367 0.05,-0.3906 -0.02,-0.7695 -0.17,-0.5352 -0.3,-0.9375 -0.39,-1.2656 -0.13,-0.293 -0.22,-0.7539 -0.42,-1.3164 l -6.06,-21.9375 c -1.32,-4.7969 -2.46,-8.9258 -3.38,-12.3907 -1.51,-6.2734 -2.27,-9.8398 -2.27,-10.7421 0,-0.5704 0.15,-0.9961 0.46,-1.254 0.3,-0.2539 0.69,-0.3867 1.15,-0.3867 0.36,0 0.75,0.1094 1.22,0.3633 0.43,0.2422 0.99,0.5977 1.65,1.1094 l 1.1,0.8398 c 0.34,0.293 0.7,0.6094 1.17,1.0117 0.41,0.375 0.95,0.8594 1.53,1.4219 l 4.02,3.9063 1.46,-1.2617 c -4.36,-5.4336 -7.89,-9.1211 -10.52,-11.0586 -2.66,-1.9454 -5.16,-2.9219 -7.57,-2.9219 -1.56,0 -2.78,0.5508 -3.61,1.5859 -0.8,1.0821 -1.24,2.3985 -1.24,3.9922 0,1.4727 0.27,3.5664 0.81,6.332 0.55,2.7383 1.12,5.0508 1.63,6.9258 -0.73,-1.2304 -1.95,-3.0078 -3.68,-5.3672 -1.73,-2.3398 -3.9,-4.6172 -6.43,-6.8203 -2.97,-2.6523 -5.84,-4.539 -8.57,-5.625 -2.12,-0.7539 -4.16,-1.1328 -6.14,-1.1328 -3.33,0 -6.3,1.3789 -9.01,4.0938 -2.67,2.7148 -4.04,6.582 -4.04,11.5664 0,8.5937 3.9,17.5429 11.67,26.8789 8.01,9.6953 16.34,14.5273 24.93,14.5273 3.26,0 5.77,-0.8281 7.55,-2.4844" /><path
         id="path192"
         style="fill:#231f20;fill-opacity:1;fill-rule:nonzero;stroke:none"
         d="m 1569.04,30.668 c 1.68,-2.2422 4.16,-3.3477 7.45,-3.3477 6.67,0 12.56,5.0391 17.73,15.1328 4.38,8.6446 6.57,16.5938 6.57,23.8594 0,3.082 -0.39,5.5664 -1.12,7.4414 -1.41,3.5664 -4.04,5.3555 -7.84,5.3555 -6.26,0 -12.13,-4.6992 -17.63,-14.086 -5.11,-8.7539 -7.72,-17.4101 -7.72,-25.8945 0,-3.3945 0.85,-6.2226 2.56,-8.4609 z m 38.03,45.4726 c 2.83,-3.664 4.24,-8 4.24,-12.9765 0,-8.6836 -3.82,-17.2188 -11.47,-25.5547 -7.89,-8.6836 -16.29,-13.043 -25.25,-13.043 -5.63,0 -10.15,1.6563 -13.54,4.9336 -3.38,3.2734 -5.09,7.875 -5.09,13.8281 0,8.961 3.83,17.5313 11.42,25.7266 7.77,8.3867 16.12,12.5781 25.15,12.5781 6.9,0 11.72,-1.8281 14.54,-5.4922" /><path
         id="path194"
         style="fill:#231f20;fill-opacity:1;fill-rule:nonzero;stroke:none"
         d="m 1641.92,81.4961 c 0.14,-0.2188 0.22,-0.4961 0.22,-0.7656 -0.05,-0.4375 -0.1,-0.7657 -0.15,-0.961 l -6.26,-23.8632 1.34,2.789 c 2.92,5.7813 6.38,11.0313 10.32,15.8008 3.93,4.7617 7.65,7.1367 11.2,7.1367 1.93,0 3.39,-0.6328 4.44,-1.8906 1.05,-1.2774 1.56,-2.7266 1.56,-4.3672 0,-1.8398 -0.51,-3.3711 -1.54,-4.5664 -1.04,-1.2188 -2.46,-1.8125 -4.28,-1.8125 -1.24,0 -2.19,0.2383 -2.83,0.7383 -0.66,0.5156 -1.14,1.0742 -1.53,1.7422 l -0.71,1.3672 c -0.17,0.2421 -0.36,0.4335 -0.58,0.5703 -0.25,0.1679 -0.49,0.2304 -0.83,0.2304 -1.63,0 -3.92,-2.2422 -6.94,-6.6836 -3.02,-4.4687 -5.72,-9.289 -8.11,-14.5 -1.43,-3.1523 -3.02,-7.332 -4.8,-12.5273 -1.12,-3.2773 -2.6,-7.9141 -4.43,-13.918 h -9.44 l 10.3,37.1094 c 0.58,2.1055 1.02,3.9805 1.36,5.6641 0.36,1.6406 0.53,2.9922 0.53,4.0547 0,1.2148 -0.29,2.1406 -0.92,2.7968 -0.61,0.6328 -1.68,0.9492 -3.19,0.9492 -0.49,0 -1.1,-0.0351 -1.83,-0.1093 -0.75,-0.086 -1.6,-0.1836 -2.63,-0.3047 v 2.0351 l 2.46,0.461 c 3.19,0.6562 6.7,1.3515 10.5,2.0703 3.82,0.7422 5.79,1.0976 5.99,1.0976 0.39,0 0.65,-0.0976 0.78,-0.3437" /><path
         id="path196"
         style="fill:#231f20;fill-opacity:1;fill-rule:nonzero;stroke:none"
         d="m 1674.18,33.7617 c 1.14,-1.8633 3.09,-2.8008 5.84,-2.8008 5.9,0 11.54,4.711 16.95,14.1094 5.16,8.8281 7.79,17.1914 7.79,25.0899 0,2.4961 -0.41,4.5586 -1.24,6.1875 -0.85,1.6562 -2.51,2.457 -5.02,2.457 -6.25,0 -12.32,-5.0391 -18.19,-15.0938 -5.25,-9 -7.86,-16.8164 -7.86,-23.4257 0,-2.4961 0.58,-4.6758 1.73,-6.5235 z m 30.63,45.5547 c 0.78,-0.8867 1.41,-2.3867 1.85,-4.5625 l 7.16,24.9805 c 0.2,0.7066 0.34,1.3166 0.41,1.8746 0.05,0.559 0.08,1.047 0.08,1.438 0,1.594 -0.32,2.594 -0.93,3.019 -0.58,0.403 -1.41,0.61 -2.53,0.61 -0.68,0 -1.36,-0.028 -1.95,-0.063 -0.58,-0.023 -1.38,-0.109 -2.38,-0.195 v 2.023 c 4.65,0.622 11.1,1.704 19.33,3.239 l 0.56,-0.633 -0.12,-0.649 -12.11,-43.9878 -8.27,-29.1954 c -0.15,-0.6679 -0.27,-1.2617 -0.39,-1.8359 -0.12,-0.5586 -0.15,-1.0703 -0.15,-1.5351 0,-1.1055 0.27,-1.836 0.83,-2.1915 0.56,-0.3281 1.02,-0.4726 1.43,-0.4726 1.2,0 2.93,1.0351 5.12,3.1523 1.27,1.2657 3.02,3.2774 5.31,5.9532 l 1.39,-1.3516 -0.88,-1.2891 c -1.49,-2.2265 -3.48,-4.5312 -5.85,-6.8672 -4.21,-4.1171 -8,-6.2109 -11.39,-6.2109 -1.1,0 -2.12,0.2578 -3,0.7578 -1.68,0.961 -2.53,2.7266 -2.53,5.2461 0,0.8516 0.1,2.2031 0.37,4.0781 0.24,1.8633 0.61,3.918 1.12,6.1875 -3.12,-4.7265 -6.55,-8.6093 -10.23,-11.6171 -3.75,-3.0196 -7.77,-4.543 -12.17,-4.543 -3.56,0 -6.7,1.2695 -9.35,3.8125 -2.66,2.543 -4,6.418 -4,11.6992 0,8.875 4.12,18.043 12.35,27.418 8.2,9.3633 16.21,14.0273 24.01,14.0273 3.23,0 5.55,-0.7578 6.91,-2.3164" /><path
         id="path198"
         style="fill:#231f20;fill-opacity:1;fill-rule:nonzero;stroke:none"
         d="m 1745.23,96.957 c -1.22,1.3047 -1.8,2.8868 -1.8,4.727 0,1.886 0.58,3.48 1.8,4.785 1.19,1.312 2.61,1.972 4.31,1.972 1.68,0 3.14,-0.66 4.33,-1.972 1.22,-1.305 1.81,-2.899 1.81,-4.785 0,-1.8754 -0.59,-3.4731 -1.81,-4.7465 -1.19,-1.293 -2.65,-1.9531 -4.33,-1.9531 -1.7,0 -3.12,0.6601 -4.31,1.9726 z m 5.8,-15.3398 c 0.22,-0.1328 0.29,-0.3047 0.26,-0.5234 l -12.37,-43.8282 c -0.58,-2.3242 -0.85,-3.7226 -0.85,-4.164 0,-0.6328 0.12,-1.168 0.37,-1.6055 0.19,-0.5 0.7,-0.7422 1.53,-0.7422 1.39,0 3.22,1.2149 5.5,3.6289 1.34,1.4219 2.98,3.4922 4.95,6.1563 l 1.63,-1.3516 -0.61,-0.8633 c -3.09,-4.3086 -5.6,-7.414 -7.62,-9.3008 -3.12,-2.957 -6.21,-4.457 -9.18,-4.457 -1.75,0 -3.24,0.7695 -4.41,2.2305 -1.14,1.4609 -1.73,3.2383 -1.73,5.2461 0,1.1797 0.08,2.2148 0.25,3.1054 0.17,0.8868 0.46,2.1914 0.9,3.9063 l 8.79,31.5937 c 0.12,0.4883 0.22,0.9414 0.29,1.3399 0.1,0.414 0.12,0.8164 0.12,1.2422 0,1.4609 -0.53,2.375 -1.63,2.7304 -1.05,0.336 -3.19,0.5196 -6.38,0.5196 v 2.0234 c 3.36,0.4141 5.77,0.7031 7.26,0.9336 1.48,0.2227 2.97,0.4648 4.45,0.6953 1.95,0.3281 3.8,0.6953 5.53,1.0977 1.75,0.4023 2.7,0.5351 2.95,0.3867" /><path
         id="path200"
         style="fill:#231f20;fill-opacity:1;fill-rule:nonzero;stroke:none"
         d="m 1759.62,26.0156 10.5,37.8282 c 0.9,3.1875 1.41,5.1367 1.56,5.8203 0.14,0.6562 0.24,1.3984 0.24,2.1914 0,1.1953 -0.37,2.1289 -1.02,2.8008 -0.69,0.6835 -2,1.0195 -3.97,1.0195 -0.47,0 -0.98,-0.0352 -1.44,-0.0977 -0.44,-0.0586 -0.97,-0.1289 -1.53,-0.2031 v 2.0078 c 2.63,0.4141 4.53,0.7305 5.65,0.9258 1.09,0.207 2.31,0.4609 3.6,0.7305 l 10.91,2.3984 c 0.24,-0.1602 0.39,-0.3555 0.49,-0.5625 l -8.04,-26.3555 c 5.02,7.6446 9.2,13.3438 12.56,17.0547 5.95,6.5742 11.2,9.8633 15.9,9.8633 1.83,0 3.39,-0.3555 4.7,-1.0469 2.51,-1.3515 3.75,-3.7617 3.75,-7.2929 0,-0.9883 -0.09,-2.0118 -0.29,-3.0704 -0.22,-1.0703 -0.49,-2.2148 -0.83,-3.4296 l -8.06,-29.3438 c -0.14,-0.6211 -0.31,-1.3633 -0.56,-2.25 -0.19,-0.8789 -0.29,-1.4883 -0.29,-1.8398 0,-0.6211 0.15,-1.1797 0.41,-1.668 0.3,-0.5 0.76,-0.7422 1.42,-0.7422 1,0 2.19,0.6211 3.5,1.8633 1.34,1.2422 3.49,3.8789 6.53,7.9492 l 1.78,-1.6328 c -3.29,-4.4922 -5.92,-7.6953 -7.82,-9.5313 -3.29,-3.2031 -6.43,-4.8359 -9.45,-4.8359 -1.34,0 -2.7,0.4766 -3.94,1.3906 -1.27,0.9375 -1.88,2.6172 -1.88,5.0157 0,0.7187 0.03,1.4492 0.13,2.2265 0.09,0.793 0.24,1.4492 0.41,2.0352 L 1802.43,65 c 0.41,1.6328 0.68,2.9688 0.83,4.0156 0.17,1.0352 0.22,1.7813 0.22,2.2305 0,0.9844 -0.25,1.8242 -0.73,2.543 -0.44,0.707 -1.3,1.0586 -2.49,1.0586 -3.14,0 -7.01,-2.7383 -11.73,-8.3008 -2.8,-3.3008 -5.6,-7.2188 -8.48,-11.7852 -2.17,-3.5429 -3.87,-7.0156 -5.11,-10.3633 -1.24,-3.3711 -3.21,-9.4921 -5.87,-18.3828 h -9.45" /><path
         id="path202"
         style="fill:#231f20;fill-opacity:1;fill-rule:nonzero;stroke:none"
         d="m 1864.3,76.8086 c -1.36,1.4023 -3.02,2.1094 -4.99,2.1094 -6.7,0 -12.98,-5.1289 -18.75,-15.3789 -5.09,-9.0078 -7.62,-16.7657 -7.62,-23.2774 0,-3.289 0.71,-5.6601 2.12,-7.1484 1.41,-1.5195 3.16,-2.25 5.23,-2.25 6.19,0 12.08,4.9648 17.8,14.9258 5.48,9.0586 8.26,17.2265 8.26,24.5078 0,2.9687 -0.69,5.125 -2.05,6.5117 z m 1.97,2.3398 c 0.93,-0.9257 1.71,-2.0937 2.24,-3.5703 l 0.3,-0.8398 1.41,4.6055 c 0.14,0.5351 0.29,0.875 0.41,1.0585 0.12,0.1954 0.42,0.3047 0.88,0.3399 l 7.13,0.793 c 0.34,0 0.59,-0.0625 0.64,-0.2071 0.04,-0.1367 0.04,-0.3906 -0.03,-0.7695 -0.19,-0.5352 -0.31,-0.9375 -0.41,-1.2656 -0.08,-0.293 -0.2,-0.7539 -0.39,-1.3164 l -6.06,-21.9375 c -1.34,-4.7969 -2.47,-8.9258 -3.39,-12.3907 -1.48,-6.2734 -2.26,-9.8398 -2.26,-10.7421 0,-0.5704 0.14,-0.9961 0.43,-1.254 0.35,-0.2539 0.71,-0.3867 1.15,-0.3867 0.36,0 0.78,0.1094 1.24,0.3633 0.44,0.2422 0.97,0.5977 1.66,1.1094 l 1.07,0.8398 c 0.36,0.293 0.75,0.6094 1.14,1.0117 0.46,0.375 0.98,0.8594 1.56,1.4219 l 4.02,3.9063 1.48,-1.2617 c -4.38,-5.4336 -7.88,-9.1211 -10.54,-11.0586 -2.63,-1.9454 -5.16,-2.9219 -7.55,-2.9219 -1.56,0 -2.78,0.5508 -3.58,1.5859 -0.85,1.0821 -1.29,2.3985 -1.29,3.9922 0,1.4727 0.29,3.5664 0.85,6.332 0.54,2.7383 1.1,5.0508 1.61,6.9258 -0.73,-1.2304 -1.97,-3.0078 -3.7,-5.3672 -1.73,-2.3398 -3.87,-4.6172 -6.38,-6.8203 -2.99,-2.6523 -5.89,-4.539 -8.59,-5.625 -2.12,-0.7539 -4.19,-1.1328 -6.14,-1.1328 -3.31,0 -6.31,1.3789 -9.01,4.0938 -2.7,2.7148 -4.04,6.582 -4.04,11.5664 0,8.5937 3.89,17.5429 11.64,26.8789 8.01,9.6953 16.34,14.5273 24.93,14.5273 3.26,0 5.8,-0.8281 7.57,-2.4844" /><path
         id="path204"
         style="fill:#231f20;fill-opacity:1;fill-rule:nonzero;stroke:none"
         d="m 1909.49,81.4961 c 0.12,-0.2188 0.22,-0.4961 0.22,-0.7656 -0.02,-0.4375 -0.12,-0.7657 -0.17,-0.961 l -6.26,-23.8632 1.39,2.789 c 2.9,5.7813 6.36,11.0313 10.3,15.8008 3.92,4.7617 7.62,7.1367 11.2,7.1367 1.9,0 3.39,-0.6328 4.43,-1.8906 1.03,-1.2774 1.56,-2.7266 1.56,-4.3672 0,-1.8398 -0.51,-3.3711 -1.53,-4.5664 -1.02,-1.2188 -2.48,-1.8125 -4.29,-1.8125 -1.24,0 -2.19,0.2383 -2.84,0.7383 -0.66,0.5156 -1.15,1.0742 -1.52,1.7422 l -0.73,1.3672 c -0.14,0.2421 -0.36,0.4335 -0.58,0.5703 -0.19,0.1679 -0.49,0.2304 -0.8,0.2304 -1.61,0 -3.9,-2.2422 -6.97,-6.6836 -2.99,-4.4687 -5.7,-9.289 -8.08,-14.5 -1.46,-3.1523 -3.02,-7.332 -4.82,-12.5273 -1.07,-3.2773 -2.58,-7.9141 -4.41,-13.918 h -9.45 l 10.3,37.1094 c 0.56,2.1055 1.02,3.9805 1.37,5.6641 0.34,1.6406 0.51,2.9922 0.51,4.0547 0,1.2148 -0.29,2.1406 -0.9,2.7968 -0.61,0.6328 -1.68,0.9492 -3.19,0.9492 -0.49,0 -1.12,-0.0351 -1.85,-0.1093 -0.71,-0.086 -1.61,-0.1836 -2.63,-0.3047 v 2.0351 l 2.48,0.461 c 3.19,0.6562 6.7,1.3515 10.47,2.0703 3.82,0.7422 5.82,1.0976 6.01,1.0976 0.39,0 0.64,-0.0976 0.78,-0.3437" /><path
         id="path206"
         style="fill:#231f20;fill-opacity:1;fill-rule:nonzero;stroke:none"
         d="m 1929.85,9.10547 c 0.83,0.93753 2.02,1.42583 3.58,1.42583 1,0 1.92,-0.2071 2.68,-0.58599 0.78,-0.39843 1.61,-0.97265 2.48,-1.70312 l 0.83,-0.64453 c 0.27,-0.19922 0.51,-0.33985 0.85,-0.45313 0.29,-0.12109 0.63,-0.16015 0.98,-0.16015 2.02,0 5.25,2.65625 9.69,7.94142 4.4,5.2969 6.62,9.1445 6.62,11.5547 0,2.289 -0.76,6.7812 -2.29,13.4765 -1.51,6.7188 -3.02,12.6875 -4.45,17.8985 -2,7.3281 -3.83,12.332 -5.48,14.9375 -1.66,2.6054 -4.12,3.9062 -7.33,3.9062 -0.27,0 -0.66,-0.0234 -1.29,-0.0703 -0.59,-0.0742 -1.59,-0.1836 -3.02,-0.3555 v 2.0352 l 16.75,3.2109 1.29,0.1133 c 1.02,0.1328 2.97,-4.4844 5.89,-13.8086 2.61,-8.3789 4.26,-14.4765 4.9,-18.2383 l 2.48,-14.6328 c 4.31,7.1953 7.45,12.711 9.45,16.5313 3.94,7.539 5.94,12.8476 5.94,15.8906 0,0.6836 -0.15,1.3633 -0.39,2.0469 -0.24,0.6562 -0.83,1.25 -1.7,1.7265 l -1.05,0.5586 c -0.66,0.3086 -1.41,0.9493 -2.29,1.8516 -0.9,0.9023 -1.31,2.0937 -1.31,3.5898 0,1.2813 0.38,2.3633 1.24,3.2149 0.8,0.8555 2.04,1.2695 3.65,1.2695 2.02,0 3.67,-0.5859 4.94,-1.8047 1.24,-1.1797 1.88,-3.25 1.88,-6.1562 0,-4.3516 -2.39,-11.3633 -7.16,-21.0274 -3.7,-7.3789 -7.79,-14.5507 -12.35,-21.4648 -5.67,-8.6836 -10.56,-15.375 -14.66,-20.0664 C 1944.7,3.71484 1939.32,0 1935.01,0 c -1.68,0 -3.14,0.523438 -4.43,1.53125 -1.31,1.03516 -1.95,2.42578 -1.95,4.20313 0,1.3164 0.42,2.43359 1.22,3.37109" /><path
         id="path208"
         style="fill:#231f20;fill-opacity:1;fill-rule:nonzero;stroke:none"
         d="m 2042.88,100.465 c 0.15,0.539 0.27,1.058 0.29,1.594 0.08,0.523 0.08,0.964 0.08,1.293 0,1.398 -0.57,2.25 -1.68,2.566 -1.12,0.305 -3.34,0.453 -6.68,0.402 v 2.008 c 1.83,0.27 3.95,0.551 6.36,0.856 2.41,0.328 3.94,0.558 4.7,0.679 2.31,0.414 5.09,1.012 8.35,1.817 0.29,0 0.56,-0.207 0.88,-0.633 L 2034.7,37.2656 c -0.44,-1.7656 -0.73,-2.8242 -0.8,-3.1875 -0.1,-0.3672 -0.13,-0.7422 -0.13,-1.0976 0,-0.7774 0.15,-1.4375 0.44,-2.0196 0.27,-0.5351 0.81,-0.8046 1.59,-0.8046 1.46,0 3.4,1.3046 5.77,3.9218 2.38,2.625 4.4,5.1367 6.03,7.6328 l 1.68,-1.1718 c -3.55,-5.2188 -6.28,-8.836 -8.23,-10.8321 -3.38,-3.4218 -6.79,-5.1406 -10.22,-5.1406 -1.49,0 -2.78,0.3906 -3.92,1.1328 -1.76,1.0977 -2.66,2.9844 -2.66,5.6485 0,1.0507 0.2,2.4257 0.49,4.1406 0.24,1.0234 0.54,2.2031 0.9,3.5547 l 17.24,61.422" /><path
         id="path210"
         style="fill:#231f20;fill-opacity:1;fill-rule:nonzero;stroke:none"
         d="m 2076.63,96.957 c -1.17,1.3047 -1.78,2.8868 -1.78,4.727 0,1.886 0.61,3.48 1.78,4.785 1.19,1.312 2.65,1.972 4.31,1.972 1.7,0 3.12,-0.66 4.33,-1.972 1.2,-1.305 1.8,-2.899 1.8,-4.785 0,-1.8754 -0.6,-3.4731 -1.8,-4.7465 -1.21,-1.293 -2.63,-1.9531 -4.33,-1.9531 -1.66,0 -3.12,0.6601 -4.31,1.9726 z m 5.79,-15.3398 c 0.22,-0.1328 0.32,-0.3047 0.3,-0.5234 l -12.37,-43.8282 c -0.59,-2.3242 -0.88,-3.7226 -0.88,-4.164 0,-0.6328 0.15,-1.168 0.37,-1.6055 0.19,-0.5 0.7,-0.7422 1.55,-0.7422 1.37,0 3.19,1.2149 5.46,3.6289 1.36,1.4219 3.04,3.4922 4.97,6.1563 l 1.63,-1.3516 -0.61,-0.8633 c -3.05,-4.3086 -5.6,-7.414 -7.57,-9.3008 -3.19,-2.957 -6.26,-4.457 -9.23,-4.457 -1.76,0 -3.19,0.7695 -4.39,2.2305 -1.16,1.4609 -1.75,3.2383 -1.75,5.2461 0,1.1797 0.07,2.2148 0.24,3.1054 0.18,0.8868 0.49,2.1914 0.93,3.9063 l 8.77,31.5937 c 0.12,0.4883 0.21,0.9414 0.29,1.3399 0.09,0.414 0.14,0.8164 0.14,1.2422 0,1.4609 -0.53,2.375 -1.63,2.7304 -1.07,0.336 -3.21,0.5196 -6.38,0.5196 v 2.0234 c 3.34,0.4141 5.77,0.7031 7.23,0.9336 1.49,0.2227 3,0.4648 4.46,0.6953 1.97,0.3281 3.8,0.6953 5.53,1.0977 1.73,0.4023 2.73,0.5351 2.94,0.3867" /><path
         id="path212"
         style="fill:#231f20;fill-opacity:1;fill-rule:nonzero;stroke:none"
         d="m 2140.47,78.9883 c 1.24,-1.6563 1.85,-3.5078 1.85,-5.6016 0,-5.5234 -5.42,-15.2148 -16.33,-29.0586 -10.38,-13.1484 -16.61,-19.7617 -18.68,-19.7617 -0.61,0 -1.05,0.8555 -1.22,2.5469 -0.12,0.9375 -0.19,2.5312 -0.19,4.7969 0,2.7382 -0.27,7.4023 -0.81,13.9492 -0.53,6.5508 -1.04,11.4101 -1.53,14.5508 -1.02,6.9375 -2.02,11.4062 -3,13.4023 -0.97,2.0234 -2.84,3.0078 -5.6,3.0078 -0.44,0 -0.97,-0.0117 -1.55,-0.0586 -0.59,-0.0508 -1.29,-0.0859 -2.07,-0.1836 v 1.6328 c 1.24,0.2305 3.84,0.7891 7.79,1.6172 3.94,0.8516 6.01,1.3282 6.28,1.4024 l 2.02,0.6093 c 0.61,0.168 1.02,-0.1367 1.39,-0.9648 0.29,-0.7773 0.73,-2.25 1.22,-4.4297 1.55,-7.125 2.75,-14.1484 3.53,-21.0742 0.48,-4.3008 0.97,-10.6563 1.46,-19.1016 l 2.02,2.1407 c 4.21,4.4687 8.38,9.7773 12.59,15.914 4.16,6.1485 6.26,10.4922 6.26,13.0508 0,1.2656 -0.93,2.7852 -2.73,4.5625 -1.85,1.793 -2.78,3.4102 -2.78,4.8828 0,1.3633 0.47,2.4727 1.37,3.3125 0.95,0.8672 2.07,1.3047 3.43,1.3047 2.31,0 4.07,-0.8164 5.28,-2.4492" /><path
         id="path214"
         style="fill:#231f20;fill-opacity:1;fill-rule:nonzero;stroke:none"
         d="m 2180.63,60.4609 c 4.89,4.3555 7.32,8.6797 7.32,12.9532 0,1.5586 -0.38,2.8007 -1.09,3.6992 -0.73,0.9375 -1.8,1.3906 -3.26,1.3906 -2.63,0 -5.24,-1.1484 -7.8,-3.4101 -2.53,-2.25 -4.84,-4.8086 -6.86,-7.668 -2.19,-3.3633 -3.9,-6.5664 -5.14,-9.6211 -0.71,-1.6445 -1.41,-3.4922 -2.22,-5.5742 7.8,1.1172 14.13,3.8945 19.05,8.2304 z m -19.87,8.2539 c 8.08,8.4727 16.46,12.7227 25.08,12.7227 3.19,0 5.7,-0.7305 7.59,-2.207 1.88,-1.4453 2.83,-3.6524 2.83,-6.5469 0,-5.8789 -3.44,-10.9102 -10.32,-15.0977 -6.9,-4.1875 -14.13,-6.7461 -21.7,-7.6953 l -3.48,-0.4023 c -0.54,-1.6914 -0.93,-3.0274 -1.12,-4.043 -0.22,-0.9961 -0.32,-2.2617 -0.32,-3.7695 0,-3.6055 1.17,-6.4063 3.51,-8.4141 2.36,-2.0078 5.11,-3.0078 8.35,-3.0078 3.07,0 6.28,1.0234 9.69,3.082 1.97,1.1914 4.8,3.336 8.5,6.4258 l 1.6,-1.4219 c -1.82,-2.3281 -4.48,-4.7265 -7.88,-7.1601 -6.09,-4.4219 -12.18,-6.6133 -18.29,-6.6133 -4.36,0 -8.13,1.5586 -11.4,4.6289 -3.26,3.0664 -4.89,7.4375 -4.89,13.1602 0,9.0586 4.07,17.8476 12.25,26.3593" /><path
         id="path216"
         style="fill:#231f20;fill-opacity:1;fill-rule:nonzero;stroke:none"
         d="m 2204.76,44.4102 h 2.02 c 0.9,-4.9649 1.97,-8.6289 3.19,-10.9297 2.24,-4.25 5.6,-6.3672 10.05,-6.3672 2.49,0 4.58,0.8867 6.29,2.6406 1.68,1.7422 2.53,4.0664 2.53,6.9649 0,1.8007 -0.22,3.2617 -0.66,4.4179 -0.41,1.1211 -0.95,2.1797 -1.61,3.0938 l -5.06,7.5351 c -3.07,4.5664 -4.99,7.6328 -5.77,9.1797 -1.17,2.3281 -1.78,4.6641 -1.78,7.0156 0,3.5391 1.27,6.6797 3.85,9.3946 2.53,2.7304 6.18,4.082 10.91,4.082 1.99,0 4.28,-0.3906 6.84,-1.1211 2.58,-0.7656 4.33,-1.1445 5.26,-1.1445 1.04,0 1.8,0.1953 2.26,0.6094 0.51,0.414 0.95,0.9492 1.39,1.6562 h 1.75 l -2.51,-17.4141 h -2.04 c -0.54,3.9454 -1.31,6.918 -2.39,8.9297 -1.94,3.6992 -5.04,5.5508 -9.3,5.5508 -1.8,0 -3.41,-0.5742 -4.79,-1.6836 -1.44,-1.1172 -2.12,-2.75 -2.12,-4.9297 0,-1.6562 0.31,-3.1523 0.95,-4.4062 0.61,-1.2539 2.04,-3.4961 4.28,-6.7344 l 4.36,-6.2305 c 2.24,-3.2148 3.85,-5.8476 4.77,-7.8906 0.93,-2.043 1.42,-4.25 1.42,-6.6016 0,-4.3906 -1.85,-8.1171 -5.63,-11.1132 -3.77,-3.0196 -8.25,-4.5157 -13.44,-4.5157 -1.65,0 -4.04,0.3399 -7.14,1.0235 -3.11,0.7031 -4.91,1.0469 -5.4,1.0469 -0.8,0 -1.41,-0.1836 -1.8,-0.5235 -0.42,-0.3437 -0.78,-0.8672 -1.07,-1.5469 h -2.05 l 2.44,20.0118" /></g></g></svg>